<svg width="16" height="16" viewBox="0 0 16 16" fill="none" xmlns="http://www.w3.org/2000/svg">
<path fill-rule="evenodd" clip-rule="evenodd" d="M2.25 4C1.83579 4 1.5 4.33579 1.5 4.75V13.25C1.5 13.6642 1.83579 14 2.25 14H10.75C11.1642 14 11.5 13.6642 11.5 13.25V9.25C11.5 8.83579 11.8358 8.5 12.25 8.5C12.6642 8.5 13 8.83579 13 9.25V13.25C13 14.4926 11.9926 15.5 10.75 15.5H2.25C1.00736 15.5 0 14.4926 0 13.25V4.75C0 3.50736 1.00736 2.5 2.25 2.5H7.25C7.66421 2.5 8 2.83579 8 3.25C8 3.66421 7.66421 4 7.25 4H2.25Z" fill="#ad7cb4"/>
<path fill-rule="evenodd" clip-rule="evenodd" d="M4.19385 11.2532C4.47175 11.5603 4.94603 11.5841 5.25319 11.3062L14.5 2.93999V5.75C14.5 6.16421 14.8358 6.5 15.25 6.5C15.6642 6.5 16 6.16421 16 5.75V1.25C16 0.835787 15.6642 0.5 15.25 0.5H10.75C10.3358 0.5 10 0.835787 10 1.25C10 1.66421 10.3358 2 10.75 2H13.3032L4.24682 10.1938C3.93966 10.4717 3.91595 10.946 4.19385 11.2532Z" fill="#ad7cb4"/>
</svg>
