<svg xmlns="http://www.w3.org/2000/svg" viewBox="0 0 1322.11 255.9"><defs><style>.cls-1{fill:#fff;}</style></defs><g id="Layer_2" data-name="Layer 2"><g id="Layer_1-2" data-name="Layer 1"><path class="cls-1" d="M93.7,196.1c1.3-.93,2.57-1.86,3.86-2.75.64-.43,1.33-.78,2-1.18a13.12,13.12,0,0,1,3.67-1.57c1.16-.31,2.26-.85,3.4-1.23s2.11-.63,3.18-.89,2.24-.42,3.33-.72a21.72,21.72,0,0,1,8.38-.46,6.92,6.92,0,0,1,3.86,1.76,16.15,16.15,0,0,1,3.92,5.27,44.29,44.29,0,0,0,2.94,5.14,41.87,41.87,0,0,1,3.56,6.63l2.85,6.61a4.71,4.71,0,0,1-.73.29,20.84,20.84,0,0,1-7.09.1,37.79,37.79,0,0,1-7.71-1.83c-.53-.21-1.1-.3-1.64-.48-1.46-.47-2.92-1-4.37-1.45-.77-.25-1.52-.53-2.28-.79l-5.38-1.93c-3.63-1.29-7.27-2.54-10.86-3.92A4.8,4.8,0,0,1,96.4,201C95.41,199.54,94.65,197.88,93.7,196.1Z" transform="translate(0 -47.85)"/><path class="cls-1" d="M62.83,216.18a8.87,8.87,0,0,1-3.15,1.08c-1.2.11-2.39.28-3.59.38-.73.06-1.47.05-2.2,0-1.38,0-2.75-.13-4.13-.08a29.1,29.1,0,0,1-5.89-.56A2.57,2.57,0,0,1,42.23,216c-1.24-1.7-2.5-3.4-3.72-5.12-2.34-3.31-4.66-6.64-7-10-2.53-3.59-5.19-7.09-8-10.44-.09-.1-.16-.21-.23-.3a1.27,1.27,0,0,1,0-.22c.59-2.11,2.24-2.44,4.09-2.38,2.17.07,4.35.2,6.52.29A32.11,32.11,0,0,1,43,189.52a26.3,26.3,0,0,1,5.77,2.8,4.34,4.34,0,0,1,.93.77q2,2.22,3.86,4.49a20.15,20.15,0,0,1,1.68,2.13c1.18,1.82,2.33,3.68,3.44,5.55.94,1.58,1.84,3.19,2.72,4.81A14.89,14.89,0,0,1,62.82,215,7.05,7.05,0,0,1,62.83,216.18Z" transform="translate(0 -47.85)"/><path class="cls-1" d="M59.53,140.54,58,141.59c-.25.17-.48.36-.73.53a2.81,2.81,0,0,0-1.3,2.42,69.36,69.36,0,0,0,.45,14,4.71,4.71,0,0,1,0,.61,4.69,4.69,0,0,1-.64-.38c-2-1.78-4-3.51-6-5.38-4.16-4-8.28-8.11-12.82-11.74-1.57-1.25-3-2.67-4.51-4-.58-.52-1-1.06-.51-1.91a2.82,2.82,0,0,0,.2-1.18,20.33,20.33,0,0,0-.23-6.6c-.74-2.95-1.39-5.93-2.18-8.87-.71-2.61-1.55-5.19-2.33-7.79-.11-.38-.28-.74.09-1.12s.6-.45,1-.24a9.37,9.37,0,0,1,1.35.86c.9.75,1.76,1.55,2.65,2.33,1.91,1.67,3.85,3.33,5.74,5,.92.83,1.78,1.73,2.66,2.6,1.75,1.76,3.43,3.59,5.27,5.25a102.62,102.62,0,0,1,8.51,8.69C56.27,136.6,57.83,138.52,59.53,140.54Z" transform="translate(0 -47.85)"/><path class="cls-1" d="M135.75,196.44c-.54-.89-1-1.65-1.47-2.44a15.69,15.69,0,0,1-.89-1.79,18.18,18.18,0,0,0-5.5-7.07,10,10,0,0,0-5.22-2.39,28.71,28.71,0,0,0-10.37.47c-1.37.32-2.77.51-4.13.85-1.17.29-2.31.69-3.44,1.08-.59.2-1.16.47-2,.8a3.24,3.24,0,0,1,.3-.52l20-20.48c3,2.93,6.55,5,10,7.26a104.36,104.36,0,0,0,10.61,6.35c4,2,8.09,3.89,12.14,5.82l.9.39c-.47.32-.83.59-1.22.82-1.13.66-2.26,1.3-3.41,1.94q-6.45,3.58-12.92,7.17C138.1,195.29,137,195.82,135.75,196.44Z" transform="translate(0 -47.85)"/><path class="cls-1" d="M57.78,192.47c.52-.18.92-.33,1.33-.46A57.18,57.18,0,0,1,78,189.12a9,9,0,0,1,7.56,4.09c.67,1,1.26,2,1.87,3,1.36,2.24,2.73,4.47,4.06,6.72a64.15,64.15,0,0,1,4.61,9.82,3,3,0,0,1,.2.77.57.57,0,0,1-.61.72h-.51c-5.8-.08-11.6-.18-17.4-.2a3.76,3.76,0,0,1-2.7-1,72.2,72.2,0,0,1-7.24-7c-2-2.33-4.09-4.54-6-6.94-1.39-1.79-2.49-3.81-3.71-5.73A7.07,7.07,0,0,1,57.78,192.47Z" transform="translate(0 -47.85)"/><path class="cls-1" d="M86.17,245.47c-1.1.14-2.15.3-3.21.42-2.47.29-4.92.63-7.39.81a33.13,33.13,0,0,1-6.22.18,9.18,9.18,0,0,1-4-1.41c-2.17-1.39-4.3-2.85-6.4-4.34A9.72,9.72,0,0,1,55.46,237a65.31,65.31,0,0,0-5.2-9.17c-.47-.73-.93-1.46-1.44-2.28.31-.13.54-.25.78-.33.88-.31,1.78-.59,2.66-.91a24.41,24.41,0,0,1,4.94-.83c.53-.08,1.07-.11,1.59-.21a24.27,24.27,0,0,1,9-.09c.46.09.94.08,1.4.17a16,16,0,0,1,6.35,2.86A25.45,25.45,0,0,1,86,242,8,8,0,0,1,86.17,245.47Z" transform="translate(0 -47.85)"/><path class="cls-1" d="M79.72,139a5.52,5.52,0,0,1,4.56,1.91,37.64,37.64,0,0,1,4,4.88c1.58,2.37,3.24,4.69,4.64,7.17.73,1.29,1.47,2.56,2.18,3.85a1.13,1.13,0,0,1-.43,1.72l-.09.05c-1.58.62-3,1.62-4.69,2-3.47.75-6.9,1.69-10.37,2.43-2.67.57-1.83.72-4.16-.82a68.37,68.37,0,0,1-8.53-7q-2.92-2.69-5.72-5.5a11.39,11.39,0,0,1-1.69-2.36,2.4,2.4,0,0,1,1-3.22,43.41,43.41,0,0,1,11.7-3.84c2-.4,4.09-.75,6.14-1.1C78.78,139,79.25,139,79.72,139Z" transform="translate(0 -47.85)"/><path class="cls-1" d="M85.17,226.59c.57-.32,1.07-.65,1.61-.89a25.9,25.9,0,0,1,6.47-1.79c.46-.07.93-.14,1.38-.25a34.45,34.45,0,0,1,10.17-.94c1.3.06,2.61,0,3.92,0a6.61,6.61,0,0,1,1.78.19,14.43,14.43,0,0,1,4.2,1.88c1.26.89,2.48,1.83,3.69,2.78a5.31,5.31,0,0,1,.8.9,50.19,50.19,0,0,1,5.24,8c.66,1.24,1.46,2.4,2.16,3.62s.58,1.39-.45,2.08a9.59,9.59,0,0,1-2.52,1.21,16.44,16.44,0,0,1-5.28.45,1.76,1.76,0,0,1-.4-.07c-1.78-.57-3.58-1.12-5.34-1.74a9.4,9.4,0,0,1-1.67-.92c-1.66-1-3.29-2.07-5-3.06a8.52,8.52,0,0,0-5.09-1.22A14.27,14.27,0,0,1,93.24,235c-.26-.14-.54-.25-.82-.37a7.24,7.24,0,0,1-2.69-1.88c-.78-.89-1.58-1.74-2.35-2.62a10.63,10.63,0,0,1-1-1.36C85.93,228.13,85.59,227.4,85.17,226.59Z" transform="translate(0 -47.85)"/><path class="cls-1" d="M67.75,86.3A3.85,3.85,0,0,1,69,88.15c.84,2,1.67,4,2.45,6,.94,2.48,1.85,5,2.73,7.46,2,5.69,4,11.39,6,17.07a64.31,64.31,0,0,1,2.82,10.89,16.37,16.37,0,0,1-.13,3.69c0,.47-.11.93-.17,1.39a2.4,2.4,0,0,1-1.83-1c-4.27-5.51-9-10.66-13.49-16-.79-.94-1.44-2-2.22-3-1.8-2.25-3.63-4.48-5.45-6.72-.35-.43-.8-.86-.36-1.5.05-.06,0-.2,0-.29-.62-2.33-.15-4.6.37-6.85a30,30,0,0,1,2.51-6.46A14.11,14.11,0,0,1,64,90.43c.72-.88,1.5-1.72,2.26-2.57C66.74,87.35,67.23,86.85,67.75,86.3Z" transform="translate(0 -47.85)"/><path class="cls-1" d="M6.86,196.56l2.29-.88a36,36,0,0,1,8-2.26,1.36,1.36,0,0,0,.29-.06c1.62-.62,2.72.25,3.62,1.39,2,2.49,3.92,5,5.8,7.58,1.33,1.81,2.49,3.74,3.79,5.57,1.74,2.47,3.54,4.88,5.31,7.33q1.28,1.74,2.53,3.5c.07.11.12.23.23.44a9.92,9.92,0,0,1-1.67.48c-3,.37-5.92.69-8.88,1-.76.09-1.53.15-2.29.31a3.29,3.29,0,0,1-2.68-.45c-1.26-.88-2.53-1.76-3.77-2.67a33.68,33.68,0,0,1-5.05-4.27,29,29,0,0,1-3.9-5.71,36.88,36.88,0,0,1-1.66-3.33A12.76,12.76,0,0,1,8,202.4c-.4-1.49-.73-3-1-4.5A9.76,9.76,0,0,1,6.86,196.56Z" transform="translate(0 -47.85)"/><path class="cls-1" d="M106.34,106.66a2,2,0,0,1-1.88-1c-1.47-2.62-3-5.23-4.44-7.87-.93-1.67-1.78-3.38-2.67-5.06a2,2,0,0,1,.6-2.81c1.24-.86,2.45-1.75,3.7-2.59,1.75-1.18,3.5-2.35,5.29-3.47a24.22,24.22,0,0,1,2.56-1.38c1-.49,2.07-.94,3.12-1.39s2-.82,3-1.2a1.42,1.42,0,0,1,1.79.71,21.35,21.35,0,0,1,1.34,2.92c.77,2.21,1.5,4.44,2.14,6.69A50.54,50.54,0,0,1,123,98.77c.1,1,.21,2,.29,3a.87.87,0,0,1-.74,1c-2.88.76-5.76,1.55-8.65,2.26-2.27.56-4.57,1-6.86,1.51C106.76,106.6,106.52,106.63,106.34,106.66Z" transform="translate(0 -47.85)"/><path class="cls-1" d="M22,163.72c.5-.07.92-.15,1.35-.17,2.14-.1,4.28-.18,6.42-.27,2.58-.11,5.16-.27,7.73-.31,1.78,0,3.55.13,5.33.19a3.85,3.85,0,0,1,1.86.67,22.64,22.64,0,0,1,4.08,3.08,6.53,6.53,0,0,1,.94,1c1.89,2.93,3.86,5.81,5.6,8.83,1.48,2.59,2.67,5.33,4,8a6.19,6.19,0,0,1,.39.92c.14.42-.06.66-.51.59-3.94-.59-7.86-1.18-11.49-3.06-2.4-1.24-5-2.15-7.42-3.32a53.33,53.33,0,0,1-14-9.46,17,17,0,0,1-3.88-5.69C22.23,164.46,22.15,164.14,22,163.72Z" transform="translate(0 -47.85)"/><path class="cls-1" d="M157.78,182.13a9.28,9.28,0,0,1-1.17-.3c-.91-.36-1.8-.73-2.69-1.13-1.83-.84-3.64-1.71-5.47-2.52a67.6,67.6,0,0,1-9.51-5.23q-5.55-3.62-11.07-7.32a22.93,22.93,0,0,1-2.51-2c-.79-.72-.7-1.3.27-1.65A58.87,58.87,0,0,1,137,158.69c2-.3,4-.65,6.06-.88a14.14,14.14,0,0,1,6.54.66,4.44,4.44,0,0,1,1.95,1.35,19.82,19.82,0,0,1,3,5.64,66.7,66.7,0,0,1,3.26,14.07,8.44,8.44,0,0,1,0,1C157.85,181,157.81,181.47,157.78,182.13Z" transform="translate(0 -47.85)"/><path class="cls-1" d="M159.2,209.93a11.89,11.89,0,0,1-1.54,0,30.81,30.81,0,0,0-6.72,0c-2.06.21-4.14.3-6.2.46-.63.05-1.26.15-1.93.24-.08-.14-.17-.28-.24-.42-1.36-3.1-2.71-6.21-4.08-9.3a1.7,1.7,0,0,1,.57-2.26,42.24,42.24,0,0,1,7-3.88c2.28-1,4.55-2,6.88-2.8a34.54,34.54,0,0,1,7.79-1.92c2.77-.32,5.55-.13,8.33-.25a8.65,8.65,0,0,1,3.51.72c.11,0,.19.16.33.28-.74.59-1.41,1.19-2.14,1.7a41,41,0,0,0-6.57,6.19c-.68.74-1.41,1.44-2.1,2.16a13.86,13.86,0,0,0-3.26,5.48A5.17,5.17,0,0,0,159.2,209.93Z" transform="translate(0 -47.85)"/><path class="cls-1" d="M119.46,120.19a40,40,0,0,1,4.35,8,54.27,54.27,0,0,1,3.53,12.13,7,7,0,0,1,.09,1.3,1.35,1.35,0,0,1-.91,1.24c-3.94,1.31-7.89,2.6-11.83,3.92a1.9,1.9,0,0,1-1.94-.32,74.52,74.52,0,0,1-7-6.1c-1.1-1.08-2.22-2.14-3.33-3.21-.67-.64-.66-.66-.25-1.45a9.53,9.53,0,0,1,2-2.57c1.9-1.75,3.7-3.6,5.57-5.38.82-.78,1.72-1.49,2.61-2.21q3-2.39,6-4.74A8.65,8.65,0,0,1,119.46,120.19Z" transform="translate(0 -47.85)"/><path class="cls-1" d="M129,127.65c-1.51-3-3.59-5.62-4.94-8.69a10.55,10.55,0,0,1,2.41-2.4,39.42,39.42,0,0,1,4.23-3.16c2.27-1.42,4.63-2.68,7-4,.58-.33,1.19-.61,1.76-1a71.37,71.37,0,0,1,14.48-6.66c.34-.12.7-.19,1.06-.29a18.73,18.73,0,0,0,.41,1.88,6.73,6.73,0,0,0,3.33,3.58c1.84,1.1,3.59,2.34,5.34,3.57a6,6,0,0,1,1.76,2c-1.67.51-3.28,1-4.85,1.51-2.07.73-4.13,1.53-6.16,2.38a2,2,0,0,1-1.53.12c-.57-.2-1.16-.32-1.73-.52a17.11,17.11,0,0,0-8.43-.59,4.06,4.06,0,0,0-1,.28,16.69,16.69,0,0,0-5.84,4.33c-2.12,2.37-4.31,4.68-6.48,7A7.32,7.32,0,0,1,129,127.65Z" transform="translate(0 -47.85)"/><path class="cls-1" d="M100.26,138.75c.57.4,1.11.73,1.59,1.13,2.92,2.52,5.8,5.08,8.74,7.57a1.58,1.58,0,0,1,.52,2q-4.77,15.09-9.47,30.2a5,5,0,0,1-1.69,2c-2.74,2.61-5.52,5.18-8.28,7.77-.48.46-.93.94-1.39,1.41a1.83,1.83,0,0,1-.33-.2c-.28-.28-.55-.58-.87-.93.49-1.23,1-2.48,1.47-3.71,1.65-4,3.42-7.94,4.93-12s2.85-8.29,4.22-12.46a29.62,29.62,0,0,0,.72-3.13,1.22,1.22,0,0,0,0-.68,22,22,0,0,0-1-2.39,3.48,3.48,0,0,1-.47-2c.14-1.57.27-3.13.37-4.7.16-2.54.29-5.08.41-7.63A4,4,0,0,1,100.26,138.75Z" transform="translate(0 -47.85)"/><path class="cls-1" d="M126.45,106.9a5.42,5.42,0,0,1,.22-.56c1.51-2.33,1.28-4.85.84-7.39-.23-1.32-.49-2.64-.68-4a2,2,0,0,1,.15-1c2.49-5.4,5.38-10.58,8.39-15.7a4.3,4.3,0,0,1,.47-.65c.17-.2.37-.37.62-.63A41.37,41.37,0,0,0,148.63,85a2.87,2.87,0,0,1-.15.43c-.83,1.22-1.7,2.41-2.5,3.65-2.6,4-5.23,8-7.73,12a11.09,11.09,0,0,1-3.83,4c-2.7,1.61-5.26,3.47-7.87,5.23-.3.21-1.8,1.35-2.29,1.65C124.46,111.32,126,107.92,126.45,106.9Z" transform="translate(0 -47.85)"/><path class="cls-1" d="M151.55,137.24a12,12,0,0,1-1.21,1,95.3,95.3,0,0,0-10.91,8.4,83.49,83.49,0,0,0-9.21,9.12,2.85,2.85,0,0,1-.24.22c-.31,0-.64,0-1-.09-.52-.07-.71-.29-.62-.82a6.4,6.4,0,0,1,.36-1c1.19-2.92,2.43-5.82,3.54-8.76a6.94,6.94,0,0,0,.37-2.76,37.41,37.41,0,0,0-1.67-9.37,1.17,1.17,0,0,1,.19-1.22c.88-1,1.74-2.12,2.66-3.14,1.19-1.32,2.41-2.62,3.66-3.88.94-1,1.95-1.83,2.95-2.72a6.8,6.8,0,0,1,1.08-.66C144.08,127.31,147.69,132.28,151.55,137.24Z" transform="translate(0 -47.85)"/><path class="cls-1" d="M99.81,82.91c-.73.45-1.47.84-2.16,1.31-1.21.84-2.39,1.72-3.6,2.57a3,3,0,0,0-1.26,2.08c-.64,3.7-1.32,7.39-1.94,11.1-1.1,6.54-2.16,13.09-3.27,19.63-.26,1.55-.62,3.07-1,4.6a3.26,3.26,0,0,1-.44.78,1.61,1.61,0,0,1-.87-1.37c-.08-.93-.18-1.87-.24-2.8-.16-2.38-.27-4.76-.47-7.13-.25-3.1-.54-6.21-.86-9.31-.28-2.73-.64-5.45-.93-8.19-.21-2-.32-4.07-.55-6.1-.28-2.47-.62-4.92-1-7.38-.23-1.55-.54-3.1-.81-4.65-.14-.77.1-1,.86-.75a5.12,5.12,0,0,1,.65.25,36.76,36.76,0,0,0,9.91,3.17,21.26,21.26,0,0,1,2.84.66,11.37,11.37,0,0,0,4.24.69C99.51,82,99.76,82.28,99.81,82.91Z" transform="translate(0 -47.85)"/><path class="cls-1" d="M59.11,151.79c.88.78,1.59,1.38,2.27,2,3.29,3.11,6.73,6,10.27,8.86,1,.77,2,1.44,3,2.12a1.63,1.63,0,0,1,.87,1.56c-.07.94-.1,1.87-.21,2.8-.15,1.43-.38,2.85-.54,4.28-.08.7,0,1.41-.12,2.1-.32,2.63-.67,5.24-1,7.86a2.8,2.8,0,0,1-.18.48l-6.92.73a2.94,2.94,0,0,1-.24-.41c-1.07-3.8-2.26-7.57-3-11.45-.43-2.13-1.14-4.2-1.65-6.31-.74-3-1.47-6-2.08-9.1a41.73,41.73,0,0,1-.48-4.48C59.05,152.58,59.09,152.31,59.11,151.79Z" transform="translate(0 -47.85)"/><path class="cls-1" d="M86.87,186.87a9.58,9.58,0,0,0-.77-.69c-.93-.65-1.85-1.32-2.82-1.91a5.18,5.18,0,0,0-2.6-.66c-1.2,0-2.41-.11-3.61-.16-.8,0-.86-.14-.77-.88.31-2.55.59-5.11.9-7.67.13-1.09.31-2.18.46-3.28.22-1.62.45-3.25.62-4.88.06-.6.22-1,.88-1.13s1.49-.36,2.24-.54c2.21-.53,4.44-1,6.63-1.62,1.64-.46,3.23-1.07,4.85-1.6a6.67,6.67,0,0,1,1.36-.36c.65-.07.88.15.84.79a7.08,7.08,0,0,1-.28,1.58c-.87,2.85-1.74,5.69-2.65,8.53-1.44,4.5-3,9-4.77,13.33C87.24,186.06,87.09,186.39,86.87,186.87Z" transform="translate(0 -47.85)"/><path class="cls-1" d="M123.45,83.92c-.23-.64-.5-1.32-.74-2a18.66,18.66,0,0,0-3.08-5.62,1.47,1.47,0,0,1-.24-1.65,70.8,70.8,0,0,1,4-9.32c1.62-3,3.08-6,4.66-9,1.21-2.29.91-2,3.46-2.06a8.24,8.24,0,0,1,3.92,1.13,2.18,2.18,0,0,1,1.26,1.91c.1,1.43.28,2.87.41,4.3a8.54,8.54,0,0,1,.17,2.78,9.33,9.33,0,0,1-1.5,2.35l-9.88,15.05C125.28,82.68,124.8,83.74,123.45,83.92Z" transform="translate(0 -47.85)"/><path class="cls-1" d="M96.31,94.93c.14.2.2.27.25.36q2.39,4.24,4.78,8.49c.79,1.39,1.67,2.74,2.39,4.18a2.12,2.12,0,0,1,0,1.62c-1.64,3.52-2.93,7.19-4.29,10.83-1.62,4.36-3.19,8.74-4.75,13.12-.57,1.61-1,3.27-1.55,4.88-.44,1.29-1,2.54-1.52,3.89-.76-.94-1.46-1.77-2.1-2.65a1.51,1.51,0,0,1-.16-.86,56.33,56.33,0,0,1,1-8.87c.91-4.91,1.73-9.83,2.57-14.75q1.17-6.93,2.29-13.88c.29-1.78.51-3.57.77-5.36C96.1,95.64,96.2,95.36,96.31,94.93Z" transform="translate(0 -47.85)"/><path class="cls-1" d="M145.86,119.1a29.53,29.53,0,0,1,6.8,1.09c5.29,1.61,10.14,4.19,15,6.77a27.77,27.77,0,0,1,3.21,2.06,1.8,1.8,0,0,1-.28,3.23,4.59,4.59,0,0,1-1.61.51A73.93,73.93,0,0,0,158.05,135q-1.83.51-3.66,1.08a1.09,1.09,0,0,1-1.24-.34,36.59,36.59,0,0,1-3.29-4,69.71,69.71,0,0,1-5.9-10.26,2.11,2.11,0,0,1-.26-.65c-.13-1.19.09-1.46,1.32-1.6Z" transform="translate(0 -47.85)"/><path class="cls-1" d="M95.64,137.16c.68-1.94,1.36-3.89,2.06-5.83.59-1.64,1.22-3.27,1.82-4.9,1.07-2.92,2.13-5.85,3.2-8.77,1-2.64,1.93-5.28,2.87-7.93a.93.93,0,0,1,.66-.67c2.86-.83,5.7-1.72,8.57-2.47,2.3-.59,4.65-1,7-1.48.81-.17,1,.11.78.89s-.48,1.33-.77,2c-1,2.06-2,4.11-2.94,6.17a3,3,0,0,1-1.33,1.55A10.18,10.18,0,0,0,116,117c-2.51,2.11-5,4.27-7.57,6.29a74.28,74.28,0,0,0-7.61,7c-1,1.06-2,2.15-2.94,3.29a8.08,8.08,0,0,0-1.6,2.88,4.83,4.83,0,0,1-.39.79Z" transform="translate(0 -47.85)"/><path class="cls-1" d="M127.29,146.17a30.46,30.46,0,0,1-1.09,3.53,56.78,56.78,0,0,1-3,6.23,43.63,43.63,0,0,1-7.24,9.6c-.63.6-1.2,1.25-1.81,1.88-1.36,1.38-2.74,2.75-4.08,4.16-.6.62-1.13,1.32-1.71,2-.86,1-1.74,1.93-2.61,2.91-.24.27-.45.57-.72.83a.5.5,0,0,1-.44.09.52.52,0,0,1-.22-.39,2.71,2.71,0,0,1,.17-.68c1.43-4.22,2.88-8.44,4.29-12.66.74-2.23,1.39-4.48,2.12-6.71.8-2.42,1.65-4.81,2.45-7.23a1.13,1.13,0,0,1,.87-.73c1.23-.43,2.46-.87,3.7-1.28l7.94-2.56c.13,0,.25-.1.38-.13C127,144.86,127.29,145.14,127.29,146.17Z" transform="translate(0 -47.85)"/><path class="cls-1" d="M52.7,242.17a4.39,4.39,0,0,0-1.22.73c-.29.28-1,.22-1.53.16A27.77,27.77,0,0,1,42.43,241a34.4,34.4,0,0,1-7.8-4.91,52,52,0,0,1-6.21-5.84,26.9,26.9,0,0,1-2-2.42c-.55-.77-.37-1.13.59-1.21a114.07,114.07,0,0,0,11.35-1.5c1.15-.21,2.27-.54,3.63-.87a5.88,5.88,0,0,1,.9.87c3.59,5.38,7.15,10.78,9.7,16.76A1.56,1.56,0,0,1,52.7,242.17Z" transform="translate(0 -47.85)"/><path class="cls-1" d="M73.75,134.73a5.24,5.24,0,0,1-2.51,1.06c-1.66.4-3.31.85-4.95,1.31a2.73,2.73,0,0,0-1.5.76.69.69,0,0,1-1.07,0,13.78,13.78,0,0,1-1.13-1.28c-1.46-1.92-2.9-3.84-4.34-5.78s-3-3.6-4.57-5.34c-1.91-2.12-3.74-4.3-5.59-6.46-.61-.71-.5-.67.17-1.37a2.56,2.56,0,0,1,2.28-.68c1.77.1,3.54.11,5.31.17.77,0,1.54.06,2.3.14a1,1,0,0,1,.56.35q7.11,8,14.2,16C73.21,134,73.45,134.33,73.75,134.73Z" transform="translate(0 -47.85)"/><path class="cls-1" d="M10.73,127.67A56.08,56.08,0,0,1,24.78,113s.08,0,.1.08c.61,1.94,1.27,3.88,1.83,5.84.73,2.61,1.39,5.24,2.08,7.86.09.32.17.65.28,1a13.26,13.26,0,0,1,.16,6.82,1.6,1.6,0,0,1-1.81.09c-3.73-1.58-7.63-2.74-11.31-4.42L11.26,128A5,5,0,0,1,10.73,127.67Z" transform="translate(0 -47.85)"/><path class="cls-1" d="M28.46,144.56a11,11,0,0,1,6.48,2.19c1.51,1,3,2,4.48,3.05A21,21,0,0,1,45.09,156a1.44,1.44,0,0,1-.89,2.35,5.31,5.31,0,0,1-1.78.16,43,43,0,0,0-6.22.11,30.69,30.69,0,0,1-3.7-.2,8.45,8.45,0,0,1-3.73-1.51,11.45,11.45,0,0,1-3.09-2.23c-2-2.19-4.1-4.34-5.09-7.25-.31-.91-.22-1.26.69-1.54a35.32,35.32,0,0,1,4.09-1C26.38,144.69,27.43,144.66,28.46,144.56Z" transform="translate(0 -47.85)"/><path class="cls-1" d="M172.86,212.72c-1.42-.24-2.67-.44-3.92-.68q-1.47-.28-2.94-.63c-1-.24-1.94-.51-2.91-.77a1.19,1.19,0,0,1-.36-.17A3.73,3.73,0,0,1,162,207a22.52,22.52,0,0,1,1.53-2.47c.63-.91,1.32-1.77,2-2.66a22.8,22.8,0,0,1,3.91-4.3,10.56,10.56,0,0,0,1.5-1.49,13.85,13.85,0,0,1,3.34-2.87,11.61,11.61,0,0,1,2.26-1,1.75,1.75,0,0,1,2.08.55,1.68,1.68,0,0,1,.4.85,11,11,0,0,1-.71,5.61c-.18.51-.29,1-.44,1.55a7.43,7.43,0,0,1-.45,1.33,66.46,66.46,0,0,0-2.77,6.78C174.1,210.11,173.49,211.34,172.86,212.72Z" transform="translate(0 -47.85)"/><path class="cls-1" d="M14,185.67a17.08,17.08,0,0,1-7.73-2.33,13.42,13.42,0,0,1-4.49-4.09,12.36,12.36,0,0,1-1.76-4.77c-.19-1,.05-1.42,1.07-1.73,1.82-.54,3.66-1.06,5.52-1.5s4-.84,6-1.22c1.51-.29,1.8-.11,2.29,1.35a21,21,0,0,1,.64,2.32,73.59,73.59,0,0,0,2.54,9.81c.4,1.12.08,1.63-1.11,1.8C16,185.46,15,185.56,14,185.67Z" transform="translate(0 -47.85)"/><path class="cls-1" d="M168.44,135.06a7.09,7.09,0,0,1-2.23,2.29c-3.73,2.6-7.44,5.26-11.25,7.76a64.38,64.38,0,0,0-8.05,6.18c-.74.67-1.48,1.35-2.26,2a2.21,2.21,0,0,1-1,.38,24,24,0,0,1-2.39.3c-2.44.15-4.71,1-7.08,1.45l-.95.18a.73.73,0,0,1,.13-1c2-1.93,4-3.89,6-5.78a58.88,58.88,0,0,1,10.09-7.46c1.47-.87,3-1.69,4.48-2.49a31.62,31.62,0,0,1,7-2.64c1.69-.43,3.37-.86,5.07-1.25a7.14,7.14,0,0,1,1.6-.11A3,3,0,0,1,168.44,135.06Z" transform="translate(0 -47.85)"/><path class="cls-1" d="M100,208c1,.39,2,.69,2.92,1.09a82.24,82.24,0,0,0,10.95,4,2.93,2.93,0,0,1,.57.19,63.59,63.59,0,0,0,6.94,2.34,55,55,0,0,0,10.81,2.32,4.7,4.7,0,0,1-.51.32c-2.69,1.12-5.4,2.2-8.08,3.35a14.38,14.38,0,0,0-2.08,1.2,1.32,1.32,0,0,1-1.8-.11,21.63,21.63,0,0,0-6.67-3.83,12.31,12.31,0,0,0-4.53-.77c-1.43.05-2.87,0-4.31,0h-3.09c0-.13-.1-.21-.08-.24.92-1.58.62-3.25.27-4.88S100.43,209.79,100,208Z" transform="translate(0 -47.85)"/><path class="cls-1" d="M161,224.29c0,1.08,0,1-.79,1.09-1.94.15-3.87.38-5.8.55a84.37,84.37,0,0,0-11.17,2,19.39,19.39,0,0,0-2.49.77,2.38,2.38,0,0,1-1.94-.17,14.6,14.6,0,0,0-5.71-1.41,24.16,24.16,0,0,0-7.38.73,1.25,1.25,0,0,1-1.38-.31c-.72-.76-.69-1.2.23-1.69a40.79,40.79,0,0,1,9-3.94,29,29,0,0,1,8.65-1,49.29,49.29,0,0,1,9.75,1.24C155,222.91,158,223.57,161,224.29Z" transform="translate(0 -47.85)"/><path class="cls-1" d="M107.61,69c-.1-2.41-.22-4.82-.31-7.23a3.3,3.3,0,0,1,1.73-3,60.65,60.65,0,0,1,5.89-3,5.62,5.62,0,0,1,2.07-.13.72.72,0,0,1,.78.75,6.56,6.56,0,0,1-.1,1.4c-.78,4.42-1.59,8.84-2.36,13.26-.21,1.16-.36,2.32-.49,3.49A1.21,1.21,0,0,1,114,75.6c-1.52.7-3,1.47-4.46,2.29s-1.75.78-1.88-.92c-.08-1-.09-2.08-.1-3.12,0-1.61,0-3.22,0-4.83Z" transform="translate(0 -47.85)"/><path class="cls-1" d="M100.86,257c-.39-2.22-1.76-4.1-1.78-6.39a7.71,7.71,0,0,1,3.07-.9,74.2,74.2,0,0,1,10.74-.57c2.54.11,5.07.39,7.61.61a4.56,4.56,0,0,1,1.26.31,1.52,1.52,0,0,1,.95,2.11,3.2,3.2,0,0,1-1.37,1.8,19.25,19.25,0,0,1-5.16,2.18,27.07,27.07,0,0,1-9.35.94c-1.76-.14-3.55,0-5.33,0C101.34,257,101.17,257,100.86,257Z" transform="translate(0 -47.85)"/><path class="cls-1" d="M64.75,86c-.78.87-1.58,1.71-2.33,2.6a15.41,15.41,0,0,0-1.89,2.47c-1.72,3.29-3.44,6.6-3.82,10.4a5.57,5.57,0,0,0-.1,1.87c.12.5-.18.74-.71.66a2.06,2.06,0,0,1-.91-.35,7.91,7.91,0,0,1-1.44-1.39c-.87-1.22-1.72-2.47-2.48-3.77s-1.35-2.61-2-3.91a11.34,11.34,0,0,1-1-3.46,1,1,0,0,1,.3-.77c.78-.73,1.6-1.43,2.43-2.1a2.15,2.15,0,0,1,.9-.4c2.47-.46,4.94-.93,7.42-1.33,1.85-.29,3.71-.48,5.56-.71Z" transform="translate(0 -47.85)"/><path class="cls-1" d="M161.33,155.52c.8,0,1.6,0,2.41,0a1.7,1.7,0,0,1,1.28.86c.59.76,1.19,1.51,1.8,2.26,1.6,2,3.21,3.94,4.8,5.93a8.36,8.36,0,0,1,.72,1.19,2.3,2.3,0,0,1-.25,1.74,1.06,1.06,0,0,1-.65.14c-2.49-.28-5-.61-7.47-.84a12.57,12.57,0,0,0-2.6.09,1.77,1.77,0,0,1-2-1.29,49,49,0,0,0-4.26-7.95l-.1-.17c-.39-.71-.24-1,.56-1.17l5.74-.89Z" transform="translate(0 -47.85)"/><path class="cls-1" d="M99.16,79.84c-3-.61-6-1.19-8.93-1.86-1.47-.33-2.9-.83-4.33-1.29-1.15-.37-2.29-.76-3.41-1.2-1-.37-1.11-.84-.51-1.69a5,5,0,0,1,1.2-1.18c.84-.62,1.71-1.19,2.59-1.74a8.65,8.65,0,0,1,1.44-.69q2.25-.89,4.51-1.72a13.17,13.17,0,0,1,1.82-.56A1.9,1.9,0,0,1,96,69.13c.92,2,1.81,4,2.69,6a13.31,13.31,0,0,1,.67,4.43C99.35,79.57,99.28,79.63,99.16,79.84Z" transform="translate(0 -47.85)"/><path class="cls-1" d="M73.75,251.48c.17,0,.33,0,.49,0a52.19,52.19,0,0,0,9.09-.66c2.16-.25,4.31-.59,6.48-.77a8.6,8.6,0,0,1,2.56.28,2,2,0,0,1,1.34,1.25,18.88,18.88,0,0,1,1.43,4.36,15.92,15.92,0,0,0,.75,2.17c.07.22.15.42.26.74a20.29,20.29,0,0,1-4.25-.42c-2.26-.59-4.52-1.23-6.8-1.76-1.56-.35-3.16-.58-4.74-.8-.66-.1-1.33,0-2,0a1.28,1.28,0,0,1-.79-.24C76.3,254.23,75.06,252.88,73.75,251.48Z" transform="translate(0 -47.85)"/><path class="cls-1" d="M4.89,143.55c2.65,2.89,5.14,5.74,8.29,7.93a3.54,3.54,0,0,1-1.19,2c-1.41,1.24-2.81,2.49-4.3,3.62-1.73,1.31-3.55,2.5-5.34,3.73a1.88,1.88,0,0,1-.73.3.58.58,0,0,1-.71-.53,2.67,2.67,0,0,1,0-.4,51.11,51.11,0,0,1,1.4-9.92c.09-.39.26-.76.38-1.14.28-.93.57-1.85.81-2.79A5.92,5.92,0,0,1,4.89,143.55Z" transform="translate(0 -47.85)"/><path class="cls-1" d="M17.19,164.58l-2.88.54a6.87,6.87,0,0,0-2.36.76,3.11,3.11,0,0,1-2.82.14c-1.36-.56-2.67-1.23-4-1.87a1.67,1.67,0,0,1-.47-.37c-.84-.93-.7-1.65.38-2.26,2-1.15,4.11-2.26,6.08-3.51a14.91,14.91,0,0,0,3.76-3.59c.14-.18.27-.37.43-.6,3,1.09,5.26,3.17,8,5-.55.11-.88.16-1.21.24-1.07.27-2.15.48-3.19.84A2.61,2.61,0,0,0,17,163C17,163.44,17.1,163.93,17.19,164.58Z" transform="translate(0 -47.85)"/><path class="cls-1" d="M74.09,258.71a9.39,9.39,0,0,1-3.56.12,11.73,11.73,0,0,1-2.79-.8c-2.59-1.17-5.14-2.43-7.71-3.67a12.89,12.89,0,0,1-4.38-3.45,9.87,9.87,0,0,0-2.2-1.87c-1.17-.77-2.42-1.41-3.59-2.29l1.42.17c1,.09,2.06.24,3.1.25a6.31,6.31,0,0,0,1.86-.35,14.42,14.42,0,0,0,1.66-.77c1.51,1,3.05,2,4.54,3.1,2.75,2,5.49,4,8.17,6a36,36,0,0,1,3,2.82A6.4,6.4,0,0,1,74.09,258.71Z" transform="translate(0 -47.85)"/><path class="cls-1" d="M148.73,83.13a2.28,2.28,0,0,1-.41-.12A49.22,49.22,0,0,1,138,76l-.65-.63a1.1,1.1,0,0,1-.19-1.39,28.75,28.75,0,0,1,4.66-6.74c.36-.35.68-.76,1.07-1.07s.78-.31,1,.25c.56,1.33,1.12,2.66,1.59,4,.79,2.28,1.52,4.58,2.27,6.87.29.89.63,1.77.84,2.68A8.14,8.14,0,0,1,148.73,83.13Z" transform="translate(0 -47.85)"/><path class="cls-1" d="M161.82,226.73a6.87,6.87,0,0,1-.44.85c-.81,1-1.58,2-2.47,2.9-1.89,1.9-3.85,3.72-5.78,5.57a1.56,1.56,0,0,1-2.26.26c-1.4-.9-2.76-1.88-4.15-2.81-1-.69-2.08-1.35-3.11-2a2.9,2.9,0,0,1-.49-.35c-.48-.45-.47-.89.09-1.23a4.35,4.35,0,0,1,1.37-.58c2.42-.51,4.84-1.07,7.28-1.44,3-.47,6-.77,9.06-1.14C161.15,226.71,161.38,226.73,161.82,226.73Z" transform="translate(0 -47.85)"/><path class="cls-1" d="M132.3,241.41c-.5-1.15-.89-2.22-1.43-3.21-.79-1.47-1.7-2.88-2.56-4.31-.13-.2-.28-.38-.39-.59-.3-.6-.16-1.1.49-1.27a5.22,5.22,0,0,1,2.17-.22,21,21,0,0,1,5.69,1.53,14.2,14.2,0,0,1,6.68,6.42c.55,1.09.12,1.85-1.1,1.91-.69,0-1.39-.06-2.09-.08l-6.22-.18Z" transform="translate(0 -47.85)"/><path class="cls-1" d="M80.61,224.24l-.61-.43c-1.27-.88-2.52-1.77-3.81-2.62-1-.62-1.06-.79-.83-1.88.09-.43.19-.85.3-1.27.22-.82.35-.92,1.19-.9l3.22.12,14.17.52a2,2,0,0,1,.6,0c.22.09.54.24.57.41a1,1,0,0,1-.31.67,1.16,1.16,0,0,1-.56.19c-1.57.32-3.14.68-4.72,1a17.18,17.18,0,0,0-8,3.28C81.45,223.62,81.07,223.9,80.61,224.24Z" transform="translate(0 -47.85)"/><path class="cls-1" d="M108,244.65c-.33.73-.89.72-1.42.76-1.17.07-2.34.08-3.51.19a29.41,29.41,0,0,0-6.9,1.18.86.86,0,0,1-1-.2,5.56,5.56,0,0,0-4.06-1.8c-.32-1.88-.62-3.7-.94-5.57,2.4,1.47,5.09,1.58,7.74,1.79a13.5,13.5,0,0,1,3.83.71,20.31,20.31,0,0,1,4.64,1.87C106.93,243.94,107.46,244.28,108,244.65Z" transform="translate(0 -47.85)"/><path class="cls-1" d="M33.59,182a3.12,3.12,0,0,1-.7.26,25.45,25.45,0,0,0-5.39,1.12,19.11,19.11,0,0,1-2.94.58,1.14,1.14,0,0,1-1.37-.75,6.21,6.21,0,0,1-.37-.93c-.57-2-1.14-3.91-1.69-5.88-.3-1.06-.56-2.13-.84-3.19-.1-.37-.19-.75.22-1a.84.84,0,0,1,1,.16c.93.82,1.84,1.66,2.75,2.49a45.2,45.2,0,0,0,8.13,6c.42.24.82.53,1.23.79Z" transform="translate(0 -47.85)"/><path class="cls-1" d="M170.67,154.21c.59.06,1.19.15,1.79.17a2.68,2.68,0,0,1,2.62,2.45c.67,2.93,1.22,5.89,1.81,8.84a1.79,1.79,0,0,1-.42,1.76.9.9,0,0,1-1.53,0,5.78,5.78,0,0,1-.71-1.32,22.2,22.2,0,0,0-3.46-5.37c-1.16-1.42-2.37-2.8-3.54-4.21a1,1,0,0,1,.57-1.83c.93-.24,1.89-.36,2.83-.53Z" transform="translate(0 -47.85)"/><path class="cls-1" d="M168,111.18a4.55,4.55,0,0,1-.47-.26,47.68,47.68,0,0,0-6.92-5.16,15.66,15.66,0,0,1-3.4-3.4,2,2,0,0,1-.32-.62c-.27-.78,0-1.24.78-1.4a18.25,18.25,0,0,1,2.19-.29,1.34,1.34,0,0,1,.75.22,38.46,38.46,0,0,1,4.54,3,15,15,0,0,1,3.81,5.13,1.4,1.4,0,0,1-.08,1.51C168.58,110.29,168.3,110.73,168,111.18Z" transform="translate(0 -47.85)"/><path class="cls-1" d="M55.6,114.59a44.69,44.69,0,0,1-5.88.38,23.94,23.94,0,0,1-4.48-.52c-1.15-.24-1.48-1.25-2-2.07-.1-.15,0-.55.18-.72A3.28,3.28,0,0,1,45,110.5c1.4-.34,2.79-.71,4.19-1.06a.92.92,0,0,1,.49,0c.92.33,2,.34,2.71,1.14A26.81,26.81,0,0,1,55.6,114.59Z" transform="translate(0 -47.85)"/><path class="cls-1" d="M128.19,250.46c-.31-.66-.6-1.3-.9-1.92a.75.75,0,0,1,.22-1,6.34,6.34,0,0,1,1.08-.72,17.83,17.83,0,0,1,7.76-1.76,4.32,4.32,0,0,1,1.29.18c.49.14.56.53.22.92a2.26,2.26,0,0,1-.51.47c-1,.68-2,1.4-3.13,2a11.64,11.64,0,0,1-1.95.72l-2.75,1A1.82,1.82,0,0,1,128.19,250.46Z" transform="translate(0 -47.85)"/><path class="cls-1" d="M66.47,209.82,73,216.61a8.38,8.38,0,0,1-.29,1.26c-.42,1.07-.89,1.28-2,1.1-.92-.14-1.86-.2-2.79-.3l-.79-.08C67.89,215.57,67.26,212.72,66.47,209.82Z" transform="translate(0 -47.85)"/><path class="cls-1" d="M377.13,207.15h-7.2q-3.3,17.1-13.5,28.8t-30,11.7q-22.2,0-35.4-15.75t-13.2-54.15q0-38.7,13.2-54.6t35.4-15.9q20.1,0,30.45,11.25A52.24,52.24,0,0,1,369.93,146h7.2Zm-27.6,25.5q9-6.6,14.7-20.4t5.7-34.5q0-21-5.7-34.95t-14.7-20.55a31.89,31.89,0,0,0-19.2-6.6q-16.5,0-25.35,14.85t-8.85,47.25q0,32.1,8.7,46.8t25.5,14.7A31.89,31.89,0,0,0,349.53,232.65Zm14.7-171a19.93,19.93,0,0,0-12.6-4.2v-3h34.5v168.9q0,10.8,5.4,15a19.93,19.93,0,0,0,12.6,4.2v3h-34.5V76.65Q369.63,65.85,364.23,61.65Z" transform="translate(0 -47.85)"/><path class="cls-1" d="M438.18,229.05q-14.56-18.6-14.55-52.2,0-33.3,15.75-51.45t43.05-18.15q25.5,0,37.2,14.25t11.7,37.35a130.14,130.14,0,0,1-1.5,18h-90.9v-5.1l78-4.2-6.3,2.7a80.65,80.65,0,0,0,2.1-16.8q0-15.6-8-26.7t-23.25-11.1q-16.5,0-28,13.35t-11.55,42.45q0,32.1,11.55,49.05t33.15,16.95q14.4,0,23.85-6.15t13.95-14q4.5-7.8,5.7-13.2l3,.6q-.61,6.6-5.55,16.65t-16.35,18.15q-11.4,8.1-29.7,8.1Q452.73,247.65,438.18,229.05Z" transform="translate(0 -47.85)"/><path class="cls-1" d="M640.83,202.65q-4.8,19.2-15.45,32.1t-30.75,12.9q-16.5,0-26.25-11.25t-9.75-35.85a172.5,172.5,0,0,1,1.8-23.7l87-7.8v4.5l-70.2,10.5a91.65,91.65,0,0,0-1.5,17.4q0,17.4,6.15,26.1t19.65,8.7q15.59,0,24.75-11.85t12.6-28.65a168.82,168.82,0,0,0,3.45-33.9q0-20.4-7.5-33.3t-27.6-12.9q-15.3,0-23.1,7.5a23.73,23.73,0,0,0-7.8,17.7,21.54,21.54,0,0,0,1.5,8.4c1,2.4,2.29,3.9,3.9,4.5V155l-18.9,2.1-.3-.9a33.13,33.13,0,0,1-1.8-11.1q0-15.3,11.55-26.55t36.45-11.25q21.6,0,32.4,9.6a43.6,43.6,0,0,1,14,23.25,141.76,141.76,0,0,1,3.15,31.65v51.6q0,10.8,5.25,15a19.3,19.3,0,0,0,12.45,4.2v3h-33.6v-42.9Z" transform="translate(0 -47.85)"/><path class="cls-1" d="M794.13,207.15h-7.2q-3.31,17.1-13.5,28.8t-30,11.7q-22.21,0-35.4-15.75t-13.2-54.15q0-38.7,13.2-54.6t35.4-15.9q20.09,0,30.45,11.25a52.24,52.24,0,0,1,13,27.45h7.2Zm-27.6,25.5q9-6.6,14.7-20.4t5.7-34.5q0-21-5.7-34.95t-14.7-20.55a31.91,31.91,0,0,0-19.2-6.6q-16.51,0-25.35,14.85t-8.85,47.25q0,32.1,8.7,46.8t25.5,14.7A31.91,31.91,0,0,0,766.53,232.65Zm14.7-171a19.93,19.93,0,0,0-12.6-4.2v-3h34.5v168.9q0,10.8,5.4,15a19.93,19.93,0,0,0,12.6,4.2v3h-34.5V76.65Q786.63,65.85,781.23,61.65Z" transform="translate(0 -47.85)"/><path class="cls-1" d="M835.22,303.75v-3a19.93,19.93,0,0,0,12.6-4.2q5.4-4.2,5.4-15V132.15q0-10.8-5.4-15a19.93,19.93,0,0,0-12.6-4.2v-3h34.5v193.8h-34.5ZM869.72,146a52.24,52.24,0,0,1,13-27.45q10.35-11.25,30.45-11.25,22.2,0,35.4,15.9t13.2,54.6q0,38.4-13.2,54.15t-35.4,15.75q-19.8,0-30-11.7t-13.5-28.8h-7.2V146Zm65.1,78.6q8.7-14.7,8.7-46.8,0-32.4-8.85-47.25t-25.35-14.85a31.89,31.89,0,0,0-19.2,6.6q-9,6.6-14.7,20.55t-5.7,34.95q0,20.7,5.7,34.5t14.7,20.4a31.89,31.89,0,0,0,19.2,6.6Q926.12,239.25,934.82,224.55Z" transform="translate(0 -47.85)"/><path class="cls-1" d="M1025.87,238.35a19.32,19.32,0,0,0,12.45,4.2v3h-52.2v-3a19.93,19.93,0,0,0,12.6-4.2q5.4-4.2,5.4-15v-91.2q0-10.8-5.4-15a19.93,19.93,0,0,0-12.6-4.2v-3h34.5v113.4Q1020.62,234.15,1025.87,238.35Zm-13.65-190.5,17.4,17.4L1012.22,83l-17.4-17.7Z" transform="translate(0 -47.85)"/><path class="cls-1" d="M1098.76,238.35a19.33,19.33,0,0,0,12.46,4.2v3H1059v-3a19.93,19.93,0,0,0,12.6-4.2q5.42-4.2,5.4-15v-91.2q0-10.8-5.4-15A19.93,19.93,0,0,0,1059,113v-3h34.5v113.4Q1093.51,234.15,1098.76,238.35Zm-13-92.1h9a52.56,52.56,0,0,1,14.39-27.3q11.4-11.7,29.11-11.7,18.88,0,28,11.7t9.15,33.9v70.5q0,10.8,5.25,15a19.32,19.32,0,0,0,12.45,4.2v3h-52.5v-3a20,20,0,0,0,12.61-4.2q5.38-4.2,5.39-15v-68.1q0-20.4-6-30t-19.8-9.6q-17.4,0-28.34,18.6t-11,57.3h-7.79Z" transform="translate(0 -47.85)"/><path class="cls-1" d="M1227.16,229.05q-14.55-18.6-14.55-52.2,0-33.3,15.75-51.45t43.05-18.15q25.5,0,37.2,14.25t11.7,37.35a130.14,130.14,0,0,1-1.5,18h-90.9v-5.1l78-4.2-6.3,2.7a80,80,0,0,0,2.1-16.8q0-15.6-8-26.7t-23.25-11.1q-16.5,0-28,13.35t-11.55,42.45q0,32.1,11.55,49.05t33.15,16.95q14.4,0,23.85-6.15t14-14q4.5-7.8,5.7-13.2l3,.6q-.6,6.6-5.55,16.65t-16.35,18.15q-11.4,8.1-29.7,8.1Q1241.71,247.65,1227.16,229.05Z" transform="translate(0 -47.85)"/></g></g></svg>