<svg width="22" height="24" viewBox="0 0 22 24" fill="none" xmlns="http://www.w3.org/2000/svg">
<path d="M14.4596 3.39729C14.4418 3.3496 14.4228 3.29898 14.4085 3.24858C14.3264 3.01403 14.2091 2.7912 14.0449 2.59183C13.998 2.54492 13.9863 2.46283 14.0214 2.39246C14.1504 2.01717 14.3029 1.65361 14.4905 1.30178C14.5844 1.12586 14.6753 0.949947 14.7661 0.774031C14.857 0.598115 14.9479 0.422199 15.0417 0.246283L15.063 0.205427C15.117 0.101064 15.1426 0.0516929 15.1832 0.0276548C15.2197 0.00607364 15.2682 0.00491168 15.3603 0.00270653C15.387 0.00206682 15.4174 0.0013393 15.4522 0C15.6164 0 15.7689 0.046911 15.9096 0.129005C15.9917 0.164188 16.0503 0.25801 16.0621 0.351832C16.0679 0.433934 16.0767 0.518968 16.0855 0.604002C16.0943 0.68902 16.1031 0.774038 16.109 0.856125C16.1324 0.961675 16.1442 1.07895 16.1324 1.1845C16.0855 1.29005 16.0269 1.37215 15.9565 1.45424L14.7955 3.22513C14.7736 3.24974 14.7536 3.27562 14.7339 3.30114C14.6692 3.3851 14.6075 3.46515 14.4905 3.48314C14.4815 3.45606 14.4707 3.42717 14.4596 3.39729Z" fill="black"/>
<path d="M14.8542 6.13354C14.8513 6.14526 14.8483 6.15699 14.8425 6.16871C14.7838 6.29772 14.6079 6.69646 14.5962 6.7551C14.6548 6.70819 14.8307 6.57919 14.8659 6.55573C14.9733 6.48554 15.0806 6.41244 15.1885 6.339C15.387 6.20382 15.5873 6.06747 15.7924 5.94589C15.9801 5.82861 16.1325 5.66442 16.2381 5.47678C16.5312 5.00773 16.8361 4.53868 17.141 4.06964C17.2 3.9737 17.2638 3.88222 17.3263 3.79265C17.3631 3.73987 17.3995 3.6877 17.4343 3.63552C17.4343 3.62966 17.4372 3.62088 17.4402 3.61209C17.4431 3.60329 17.446 3.59447 17.446 3.58861C16.9183 3.36578 16.4257 3.04913 16.0152 2.65039L15.9449 2.72076C15.9346 2.73615 15.9244 2.7493 15.9151 2.76118C15.9032 2.77643 15.8928 2.78968 15.8862 2.80285C15.5344 3.40097 15.1943 4.01081 14.9011 4.64411C14.8777 4.67929 14.8777 4.7262 14.8777 4.76138C14.8904 4.85055 14.9066 4.93626 14.9225 5.02039C14.9359 5.09113 14.949 5.16087 14.9598 5.23049C15.0184 5.53542 15.0418 5.82861 14.8659 6.09835C14.8601 6.11007 14.8571 6.12182 14.8542 6.13354Z" fill="black"/>
<path d="M12.4854 6.14589C12.3915 6.15762 12.3095 6.1107 12.2625 6.02861C12.0866 5.72371 11.9107 5.41875 11.7465 5.10212L11.4299 4.504C11.3595 4.39845 11.383 4.24599 11.4885 4.17563H11.5002C11.641 4.07008 11.7817 3.96453 11.9342 3.87071C12.0397 3.80034 12.1423 3.7329 12.2449 3.66547C12.3476 3.59804 12.4502 3.5306 12.5557 3.46023C12.6496 3.4016 12.7551 3.34296 12.8607 3.29605C12.9193 3.26673 12.9809 3.24034 13.0424 3.21395C13.104 3.18756 13.1656 3.16118 13.2242 3.13186C13.3024 3.09276 13.3806 3.0641 13.4588 3.03543C13.4979 3.02109 13.537 3.00676 13.576 2.99112C13.6581 2.95594 13.752 2.99112 13.7871 3.07322C13.8458 3.17877 13.9044 3.29605 13.9396 3.41332C14.0334 3.67133 14.1155 3.92934 14.1859 4.19908C14.3032 4.52746 14.3853 4.86756 14.4322 5.20767L14.4674 5.5595C14.4791 5.61814 14.4439 5.66505 14.3853 5.67678L14.3843 5.67702C14.0445 5.77076 13.7047 5.86451 13.3649 5.94652C13.1851 5.99343 13.0053 6.02991 12.8255 6.0664C12.7356 6.08464 12.6456 6.10289 12.5557 6.12243C12.5323 6.13416 12.5088 6.14589 12.4854 6.14589Z" fill="black"/>
<path d="M7.95795 3.75293C8.02831 3.81157 8.07522 3.88193 8.09868 3.96403C8.12993 4.04216 8.16248 4.12029 8.19504 4.19842C8.26019 4.35479 8.32542 4.51133 8.38014 4.66769L8.69679 5.54727L9.40046 7.55272C9.55292 7.96319 9.65847 8.39712 9.72884 8.83104C9.74056 8.97178 9.74056 9.12424 9.71711 9.26497C9.71711 9.31505 9.70855 9.35658 9.69875 9.40416L9.69365 9.42916C9.61156 9.42916 9.52946 9.38225 9.48255 9.31188C9.13098 8.8622 8.75661 8.42961 8.38328 7.99823C8.22127 7.81103 8.05897 7.62349 7.89931 7.43544C7.84712 7.37673 7.8022 7.31077 7.75645 7.2436C7.71996 7.19003 7.68292 7.13564 7.6413 7.08361C7.57626 7.00412 7.51123 6.92352 7.44585 6.84249C7.29915 6.66067 7.15031 6.47621 6.99627 6.29785L6.98391 6.28186C6.94941 6.23783 6.90764 6.18452 6.94936 6.12193V6.08675C6.87899 5.81701 6.9259 5.54727 6.99627 5.28926C7.06664 5.03125 7.16046 4.77324 7.28946 4.52696C7.3481 4.42141 7.41847 4.32759 7.50056 4.24549C7.55604 4.17416 7.61688 4.10819 7.67945 4.04033C7.70947 4.00778 7.73988 3.97479 7.7703 3.94057C7.84067 3.88193 7.89931 3.8233 7.95795 3.75293Z" fill="black"/>
<path d="M6.99626 10.1207L6.80862 10.238C6.78516 10.2614 6.74998 10.2849 6.72653 10.2966C6.6327 10.3553 6.57407 10.4608 6.57407 10.5781C6.53888 11.1293 6.55061 11.6805 6.6327 12.22V12.2903C6.60925 12.2786 6.58579 12.2669 6.56234 12.2434C6.48422 12.1731 6.4061 12.1041 6.32797 12.0351C6.1716 11.897 6.01505 11.7587 5.85867 11.6101C5.76928 11.525 5.68027 11.4395 5.5913 11.354C5.19004 10.9684 4.78948 10.5836 4.35752 10.238C4.24042 10.1502 4.13246 10.0486 4.02508 9.94766C3.96039 9.88683 3.89591 9.82619 3.82977 9.76888C3.75941 9.71024 3.7125 9.63987 3.77114 9.54605C3.79459 9.49914 3.79459 9.45222 3.79459 9.40531C3.82977 9.1473 3.81805 8.88929 3.77114 8.63128L3.72341 8.4327C3.65685 8.15509 3.5888 7.87128 3.51312 7.58751C3.43106 7.28267 3.33726 6.97783 3.24346 6.67298C3.24145 6.66493 3.23902 6.657 3.23673 6.64952C3.22568 6.61342 3.21625 6.58261 3.25511 6.54375C3.30203 6.49683 3.32548 6.49683 3.37239 6.52029C3.43103 6.54375 3.47794 6.57893 3.53658 6.62584C3.64213 6.71966 3.74768 6.81349 3.85323 6.89558C3.96464 6.99526 4.07606 7.09202 4.18747 7.18877C4.29889 7.28553 4.4103 7.38228 4.52171 7.48196C4.62726 7.57579 4.73281 7.68134 4.83836 7.78689C4.89916 7.84768 4.958 7.90848 5.01631 7.96871C5.16038 8.11755 5.30136 8.26319 5.45993 8.39673C5.81176 8.71338 6.14014 9.05348 6.45679 9.41704C6.60925 9.6516 6.79689 9.88615 6.99626 10.1207Z" fill="black"/>
<path d="M11.2243 16.466C11.1481 16.5217 11.0718 16.5774 10.9956 16.6302C11.0319 16.6956 11.0649 16.7598 11.0969 16.8223C11.1682 16.9614 11.235 17.0915 11.324 17.2048C11.3943 17.2987 11.4764 17.369 11.582 17.4042C11.8501 17.5085 12.123 17.6033 12.3946 17.6977C12.5505 17.7519 12.7063 17.806 12.8603 17.8616L13.4936 18.0844L13.5211 18.0948L13.5535 18.1073C13.6237 18.1344 13.69 18.1599 13.7634 18.1782C13.9038 18.2157 14.0368 18.2606 14.1742 18.3071C14.2089 18.3188 14.2439 18.3306 14.2794 18.3424C14.3087 18.3542 14.3409 18.363 14.3732 18.3717C14.4054 18.3805 14.4377 18.3893 14.467 18.4011C14.7602 18.4949 15.0651 18.577 15.3701 18.6122C15.6515 18.6591 15.933 18.6474 16.2027 18.6004C16.2145 18.5946 16.2291 18.5887 16.2438 18.5829C16.2584 18.577 16.2731 18.5711 16.2848 18.5653L15.9447 17.7912C15.8274 17.5215 15.6867 17.2635 15.5225 17.0172C15.3935 16.8296 15.288 16.6302 15.1824 16.4191C15.0769 16.1845 14.9244 15.9734 14.725 15.7975C14.596 15.6802 14.4318 15.6099 14.2676 15.5864C13.9393 15.5395 13.5992 15.563 13.2825 15.645C13.218 15.6626 13.1535 15.6744 13.089 15.6861C13.0245 15.6978 12.96 15.7096 12.8955 15.7271C12.831 15.7447 12.7694 15.7623 12.7079 15.7799C12.6463 15.7975 12.5847 15.8151 12.5202 15.8327C12.4598 15.8492 12.3993 15.8734 12.3376 15.8981C12.2677 15.9261 12.1962 15.9547 12.1215 15.9734C11.969 16.0203 11.8165 16.079 11.6875 16.1611C11.6055 16.208 11.5233 16.2549 11.453 16.3018C11.3768 16.3546 11.3005 16.4103 11.2243 16.466Z" fill="black"/>
<path d="M7.00815 19.116C7.14888 19.0925 7.26616 19.0573 7.38344 18.9869V18.8579C7.35998 18.6586 7.31307 18.4592 7.21925 18.2833L6.9026 17.7204C6.77359 17.4975 6.64459 17.2747 6.50385 17.0636C6.44522 16.9815 6.37485 16.8994 6.30448 16.8173L5.8471 16.2896C5.82365 16.2544 5.77673 16.2192 5.74155 16.1957C5.53045 16.055 5.2959 15.9495 5.06134 15.8674C4.72124 15.7501 4.35768 15.6797 3.99412 15.668C3.74783 15.6563 3.48982 15.6445 3.23181 15.6328C3.00899 15.6328 2.82134 15.668 2.75098 15.9143V15.9377C2.75098 15.9495 2.7627 15.9612 2.77443 15.9729C3.10281 16.3599 3.41946 16.7704 3.71265 17.1926C3.88278 17.4441 4.05757 17.6909 4.23113 17.936C4.33262 18.0793 4.43412 18.2227 4.53359 18.3654C4.60396 18.4651 4.67726 18.5647 4.75056 18.6644C4.82385 18.7641 4.89715 18.8638 4.96752 18.9635C5.01443 19.0221 5.07307 19.069 5.15516 19.0808C5.37799 19.1277 5.61255 19.1511 5.8471 19.1511C5.92063 19.1511 5.99688 19.154 6.07454 19.1568H6.07857C6.16054 19.1598 6.24443 19.1629 6.32794 19.1629C6.41003 19.1746 6.50385 19.1746 6.58595 19.1629C6.65631 19.157 6.72668 19.1482 6.79705 19.1394C6.86741 19.1306 6.93778 19.1218 7.00815 19.116Z" fill="black"/>
<path d="M15.8159 16.4864C15.855 16.5463 15.8941 16.6063 15.9331 16.6767C15.9617 16.6624 15.9897 16.6481 16.0174 16.634C16.1262 16.5787 16.229 16.5264 16.3319 16.489L17.8448 15.6446C17.878 15.6265 17.9121 15.6083 17.9465 15.59C18.0456 15.5372 18.1478 15.4827 18.2435 15.4218C18.2689 15.4091 18.2909 15.3929 18.315 15.3752C18.3354 15.3602 18.3574 15.3441 18.3842 15.328L18.2787 15.2811C18.1649 15.227 18.0504 15.1729 17.9355 15.1187C17.5771 14.9495 17.2148 14.7784 16.8596 14.6008C16.4374 14.3663 16.0152 14.12 15.6165 13.8503C15.5299 13.7917 15.4422 13.7342 15.3544 13.6767C15.0377 13.4692 14.7191 13.2604 14.4437 12.9941L12.0982 15.3983C12.0864 15.4101 12.0747 15.4335 12.063 15.457C12.106 15.4408 12.1441 15.4247 12.1795 15.4097C12.2214 15.392 12.2594 15.3758 12.2975 15.3631C12.4265 15.3162 12.5556 15.2693 12.6963 15.2341C12.801 15.2019 12.9112 15.1808 13.0232 15.1593C13.0742 15.1495 13.1257 15.1396 13.1771 15.1286C13.5759 15.0348 13.9863 15.0113 14.3968 15.07C14.6196 15.1051 14.8307 15.199 15.0067 15.3514C15.2881 15.5742 15.5109 15.8557 15.6517 16.1841L15.7572 16.3952C15.7768 16.4265 15.7963 16.4564 15.8159 16.4864Z" fill="black"/>
<path d="M6.78564 16.2081C6.80878 16.1989 6.83008 16.1915 6.85028 16.1844C6.88129 16.1736 6.9097 16.1637 6.93811 16.1495C7.6535 15.9149 8.40407 15.7977 9.15465 15.8094C9.51821 15.8094 9.84659 15.9853 10.046 16.2902C10.1281 16.4075 10.1984 16.5248 10.2688 16.6421C10.3501 16.7697 10.4284 16.9003 10.5067 17.0309L10.5089 17.0344C10.588 17.1663 10.6675 17.2988 10.7496 17.4278C10.9607 17.7914 11.1484 18.1784 11.2891 18.5771C11.3008 18.6006 11.3126 18.6358 11.3126 18.671C11.3243 18.7061 11.3008 18.7413 11.2656 18.7531H11.1835C10.5033 18.7413 9.82313 18.7296 9.14292 18.7296C9.02564 18.7296 8.90837 18.6944 8.82627 18.6123C8.52135 18.3543 8.23988 18.0846 7.98187 17.7914C7.90369 17.7015 7.8242 17.6129 7.74472 17.5243C7.58574 17.347 7.42676 17.1698 7.27821 16.9822C7.15936 16.8294 7.05894 16.6643 6.95916 16.5002C6.92111 16.4376 6.88314 16.3752 6.84428 16.3137C6.8091 16.2785 6.79737 16.2433 6.78564 16.2081Z" fill="black"/>
<path d="M9.91 22.4489C9.97751 22.4395 10.0468 22.4298 10.1161 22.4235C10.1396 22.2828 10.1279 22.1538 10.1044 22.0365C9.94023 21.2859 9.5063 20.6174 8.87301 20.1835C8.66191 20.0193 8.4039 19.9021 8.13416 19.8434C8.10484 19.8375 8.07845 19.8346 8.05206 19.8317C8.02568 19.8288 7.99929 19.8258 7.96997 19.82C7.61814 19.7613 7.26631 19.7613 6.91447 19.8317C6.88515 19.8375 6.8529 19.8405 6.82065 19.8434C6.7884 19.8463 6.75615 19.8493 6.72683 19.8551C6.53919 19.8669 6.33981 19.9021 6.15217 19.949L5.83552 20.0545C5.81793 20.0604 5.80327 20.0662 5.78862 20.0721C5.77398 20.078 5.75926 20.0838 5.7417 20.0897C5.76441 20.126 5.78536 20.1624 5.80592 20.198C5.83839 20.2544 5.87001 20.3092 5.90589 20.3594C6.14044 20.6995 6.33981 21.0631 6.51573 21.4384C6.60955 21.626 6.75029 21.8019 6.9262 21.9192C7.0179 21.9804 7.10959 22.0431 7.20189 22.1063C7.3574 22.2127 7.51494 22.3205 7.67678 22.4235C7.81751 22.5173 7.9817 22.5642 8.14589 22.5877C8.39217 22.5994 8.62672 22.5994 8.87301 22.5642C9.1378 22.5431 9.39303 22.5123 9.65598 22.4806L9.74086 22.4704C9.7951 22.465 9.85191 22.4571 9.91 22.4489Z" fill="black"/>
<path d="M9.3657 9.93275C9.56507 9.92102 9.76444 10.0031 9.90517 10.1556C10.0811 10.3315 10.2336 10.5191 10.3743 10.7302C10.4057 10.7773 10.437 10.824 10.4683 10.8706C10.624 11.1026 10.777 11.3305 10.9138 11.5746C10.9548 11.6509 10.9988 11.7271 11.0428 11.8033C11.0867 11.8796 11.1307 11.9558 11.1718 12.032C11.2187 12.0907 11.207 12.1727 11.1483 12.2197C11.1366 12.2314 11.1366 12.2314 11.1249 12.2314L11.1131 12.2431C11.0381 12.2713 10.9668 12.3069 10.8955 12.3426C10.7885 12.396 10.6815 12.4495 10.5619 12.4777C10.416 12.511 10.2715 12.5459 10.1275 12.5806L10.1264 12.5809C9.86572 12.6438 9.60641 12.7063 9.34224 12.7591C9.30041 12.7684 9.26594 12.7767 9.23698 12.7837C9.15795 12.8026 9.1199 12.8118 9.08491 12.805C9.05242 12.7987 9.02257 12.7788 8.96499 12.7403C8.93532 12.7205 8.89824 12.6957 8.84968 12.6653C8.49784 12.419 8.15774 12.1493 7.85282 11.8444C7.79806 11.7925 7.7426 11.7406 7.68695 11.6886C7.51615 11.5288 7.34355 11.3674 7.18434 11.1993C7.10224 11.1172 7.0436 11.0234 6.98497 10.9179C6.9146 10.7771 6.96151 10.613 7.10224 10.5426C7.53617 10.3315 7.99355 10.179 8.47439 10.0969C8.70894 10.05 8.95523 10.0031 9.18978 9.96793C9.24842 9.93275 9.30706 9.93275 9.3657 9.93275Z" fill="black"/>
<path d="M10.1867 20.1011C10.128 20.1362 10.0694 20.1714 9.99902 20.2066C10.0459 20.3004 10.0928 20.3942 10.1632 20.4646C10.1984 20.5232 10.2336 20.5819 10.2805 20.6288C10.336 20.7001 10.3968 20.7661 10.4594 20.8339C10.4894 20.8665 10.5198 20.8995 10.5502 20.9337C10.644 21.0275 10.7496 21.1096 10.8669 21.1565C10.9021 21.18 10.9255 21.1917 10.9607 21.2035C11.2304 21.3559 11.5354 21.4263 11.852 21.4146C12.0631 21.3911 12.2742 21.4497 12.4501 21.5553C12.5498 21.6139 12.6466 21.6755 12.7433 21.7371C12.8401 21.7986 12.9368 21.8602 13.0365 21.9188C13.0633 21.9323 13.0884 21.9474 13.1131 21.9622C13.1533 21.9864 13.1923 22.0099 13.2359 22.0244C13.3489 22.0643 13.4656 22.1004 13.584 22.137C13.6744 22.165 13.766 22.1933 13.8575 22.2238C13.8692 22.2355 13.8926 22.2355 13.9044 22.2355C14.1155 22.259 14.3266 22.2355 14.5259 22.1886C14.6315 22.1534 14.7253 22.1065 14.8191 22.0479C14.9364 21.9658 14.9481 21.9423 14.866 21.8016C14.825 21.7312 14.7811 21.6609 14.7371 21.5906C14.6931 21.5202 14.6491 21.4497 14.608 21.3794C14.4438 21.051 14.2327 20.7343 13.9982 20.4412C13.9747 20.406 13.9395 20.3708 13.9044 20.3356C13.7636 20.2183 13.6229 20.1128 13.4704 20.0072C13.318 19.9017 13.1538 19.8313 12.9779 19.7844C12.9075 19.7609 12.8371 19.7609 12.7668 19.7609C12.716 19.7609 12.6651 19.7622 12.6143 19.7635C12.5127 19.7662 12.411 19.7688 12.3094 19.7609C11.9106 19.7375 11.5002 19.7727 11.1132 19.8665C11.0838 19.8724 11.0575 19.8753 11.0311 19.8782C11.0047 19.8812 10.9783 19.8841 10.949 19.8899C10.6792 19.9251 10.4329 19.9955 10.1867 20.1011Z" fill="black"/>
<path d="M1.08566 16.5837L0.815918 16.6893C0.815918 16.7045 0.817153 16.721 0.818421 16.7378C0.82106 16.773 0.823839 16.81 0.815918 16.8417C0.851101 17.0176 0.886284 17.1936 0.933195 17.3695C0.956651 17.4516 0.991834 17.5337 1.02702 17.6158C1.08566 17.7448 1.15602 17.8738 1.22639 18.0028C1.35539 18.2373 1.50785 18.4719 1.68377 18.6713C1.85969 18.8589 2.05906 19.0231 2.27016 19.1755C2.34638 19.2283 2.41967 19.2811 2.49296 19.3339C2.56626 19.3866 2.63959 19.4394 2.71581 19.4922C2.80963 19.5508 2.92691 19.5626 3.03246 19.5391C3.09599 19.5232 3.15413 19.5181 3.21419 19.5128C3.24283 19.5103 3.2719 19.5077 3.3022 19.5039C3.65403 19.4687 3.99414 19.4336 4.34597 19.3866C4.41634 19.3749 4.4867 19.3515 4.54534 19.328C4.54086 19.319 4.53809 19.3118 4.53573 19.3056C4.5319 19.2956 4.52913 19.2883 4.52188 19.2811C4.42806 19.1404 4.33424 19.0114 4.22869 18.8706C4.01761 18.5892 3.80648 18.3077 3.60712 18.0145C3.5499 17.9309 3.49434 17.8472 3.43918 17.7642C3.34737 17.6261 3.25671 17.4896 3.16147 17.3577C2.93864 17.0528 2.71581 16.7596 2.48126 16.4664C2.37571 16.3257 2.2467 16.2319 2.05906 16.3022C2.04733 16.314 2.0356 16.314 2.02388 16.314C1.70723 16.3726 1.39058 16.4547 1.08566 16.5837Z" fill="black"/>
<path d="M2.66901 12.8301C2.64262 12.8331 2.61623 12.836 2.58691 12.8419C2.60065 12.8693 2.61037 12.8928 2.61842 12.9122C2.62411 12.926 2.62897 12.9377 2.63383 12.9474C2.73937 13.2054 2.89184 13.4283 3.09121 13.6159C3.57204 14.0733 4.13498 14.4486 4.73309 14.73C4.87381 14.8004 5.02039 14.862 5.16697 14.9235C5.31357 14.9851 5.46021 15.0467 5.60094 15.1171C6.01843 15.3374 6.48178 15.4087 6.9343 15.4783L6.94963 15.4806C6.99655 15.4923 7.02 15.4572 7.00827 15.4102C6.99655 15.3751 6.98482 15.3399 6.96136 15.3047C6.92729 15.2339 6.89381 15.1632 6.86039 15.0926C6.74427 14.8472 6.62884 14.6032 6.49225 14.3665C6.33564 14.0901 6.15731 13.821 5.98001 13.5534C5.93161 13.4803 5.88329 13.4074 5.8355 13.3344C5.81779 13.299 5.78671 13.2703 5.7574 13.2432C5.74789 13.2344 5.73857 13.2258 5.72995 13.2172C5.57749 13.0764 5.42503 12.9591 5.24911 12.8536C5.17875 12.8067 5.10838 12.7832 5.02628 12.7715L4.99458 12.7697C4.79516 12.7586 4.6052 12.748 4.40471 12.748C4.21097 12.748 4.01211 12.7583 3.81151 12.7686C3.7087 12.7739 3.60494 12.7793 3.50168 12.7832L2.7511 12.8184C2.72178 12.8243 2.6954 12.8272 2.66901 12.8301Z" fill="black"/>
<path d="M18.5132 15.0001L18.3725 14.9649C18.3197 14.9415 18.2669 14.921 18.2142 14.9004C18.1614 14.8799 18.1086 14.8594 18.0558 14.8359C17.9703 14.7979 17.8847 14.7579 17.7983 14.7176C17.6717 14.6585 17.5433 14.5985 17.4108 14.5427C17.0238 14.3668 16.6485 14.1675 16.2967 13.9329C16.0798 13.7923 15.863 13.6487 15.6462 13.5051C15.4293 13.3615 15.2118 13.2175 14.9949 13.0768C14.8894 13.0064 14.7955 12.9243 14.7017 12.8422C14.6079 12.7601 14.6196 12.6898 14.7369 12.6546C15.1708 12.4787 15.6165 12.3497 16.0739 12.2676C16.3084 12.2324 16.543 12.1972 16.7892 12.162C17.0473 12.1268 17.3053 12.1503 17.5515 12.2441C17.6454 12.2793 17.7157 12.3262 17.7744 12.4083C17.9268 12.6077 18.0441 12.8305 18.1262 13.0651C18.3139 13.6045 18.4429 14.1557 18.5132 14.7187V14.8359C18.5205 14.8504 18.5188 14.8784 18.5164 14.917C18.5149 14.9408 18.5132 14.9688 18.5132 15.0001Z" fill="black"/>
<path d="M18.5017 18.2606H18.6777C18.619 18.1199 18.6073 17.9791 18.6425 17.8501C18.7246 17.6038 18.8536 17.381 19.0295 17.2051C19.1116 17.1113 19.1937 17.0292 19.2758 16.9471C19.5103 16.6774 19.7683 16.4311 20.0498 16.22C20.1319 16.1613 20.214 16.091 20.296 16.0206C20.2921 16.0167 20.2883 16.0115 20.2844 16.0063C20.2765 15.9958 20.2687 15.9854 20.2609 15.9854C20.1319 15.9268 19.9912 15.9033 19.8504 15.9033C19.7318 15.9077 19.6115 15.9072 19.4902 15.9066C19.2877 15.9057 19.0824 15.9048 18.877 15.9268C18.5604 15.962 18.2555 16.0441 17.9623 16.1496C17.6925 16.2434 17.4228 16.3607 17.153 16.478C16.8598 16.607 16.5901 16.7594 16.3321 16.9354C16.2383 16.994 16.2148 17.1113 16.2617 17.2051C16.3438 17.3868 16.4229 17.5684 16.502 17.7501C16.5811 17.9317 16.6605 18.1141 16.7426 18.2958C16.7426 18.3075 16.7543 18.331 16.766 18.3427C16.8012 18.3368 16.8393 18.3339 16.8775 18.331C16.9156 18.328 16.9537 18.3251 16.9889 18.3192C17.112 18.3075 17.2322 18.2987 17.3524 18.2899C17.4724 18.2811 17.5931 18.2723 17.716 18.2606C17.974 18.2371 18.2437 18.2371 18.5017 18.2606Z" fill="black"/>
<path d="M14.0215 7.72852C14.2208 8.02171 14.3968 8.33836 14.5258 8.66673C14.7134 9.12412 14.8541 9.60495 14.9362 10.0858C14.948 10.1327 14.948 10.1913 14.948 10.2383C14.948 10.3086 14.9011 10.3673 14.8424 10.379C14.6137 10.4552 14.3821 10.5314 14.1505 10.6077C13.9189 10.6839 13.6872 10.7601 13.4585 10.8364C13.3765 10.8716 13.2944 10.8481 13.2357 10.8012C12.9425 10.5784 12.6728 10.3438 12.4148 10.0858C12.3503 10.0213 12.2858 9.95976 12.2213 9.89822C12.1568 9.83664 12.0923 9.77501 12.0278 9.7105C11.9457 9.64014 11.9457 9.62841 12.0043 9.54632C12.0629 9.42904 12.145 9.33522 12.2389 9.24139C12.3503 9.13585 12.4588 9.0303 12.5672 8.92475C12.6757 8.8192 12.7842 8.71365 12.8956 8.6081C12.9894 8.51427 13.095 8.43218 13.2005 8.35009C13.4351 8.16244 13.6696 7.9748 13.9042 7.79888C13.9277 7.77543 13.9746 7.75197 14.0215 7.72852Z" fill="black"/>
<path d="M14.8809 8.16853C14.9701 8.31188 15.0595 8.45546 15.1357 8.60783C15.1709 8.58438 15.2061 8.56092 15.2412 8.52574C15.4993 8.256 15.7573 7.98626 16.0035 7.7048C16.1912 7.4937 16.4257 7.31778 16.6838 7.20051C16.7065 7.18531 16.7342 7.17996 16.7605 7.17489C16.7748 7.17213 16.7886 7.16945 16.801 7.16532C17.1294 7.10668 17.4695 7.13014 17.7862 7.23569C17.8189 7.24876 17.8552 7.25819 17.8931 7.26804C17.9233 7.27586 17.9544 7.28395 17.9855 7.29433C18.0442 7.31778 18.1028 7.30605 18.1615 7.2826C18.4077 7.17705 18.6423 7.08323 18.8886 7.00113C19.0762 6.94249 19.2639 6.88386 19.4632 6.82522C19.4046 6.7314 19.3342 6.6493 19.2521 6.59066C19.0528 6.4382 18.8417 6.29747 18.6306 6.16846C18.4546 6.07464 18.3139 5.93391 18.2435 5.74626C18.223 5.68457 18.2114 5.61385 18.201 5.54993L18.1966 5.52344C18.1497 5.53517 18.1028 5.54689 18.0676 5.55862C17.4695 5.75799 16.9066 6.016 16.3671 6.34438C16.2967 6.39128 16.2264 6.42647 16.156 6.46164C15.8746 6.6141 15.6048 6.76658 15.3351 6.93077C15.1709 7.04804 14.995 7.17705 14.8425 7.30605C14.737 7.38815 14.6431 7.48197 14.561 7.58752C14.6475 7.79362 14.7641 7.98089 14.8809 8.16853Z" fill="black"/>
<path d="M11.7701 9.91016C11.7882 9.92228 11.8056 9.93361 11.8224 9.94457C11.8707 9.97603 11.9142 10.0044 11.9577 10.0392C12.1277 10.1857 12.2977 10.3352 12.4677 10.4847C12.6377 10.6342 12.808 10.7839 12.978 10.9305C13.0168 10.9564 13.045 11.0001 13.0545 11.0479C13.176 11.0443 13.3049 11.059 13.4243 11.106C13.4946 11.0826 13.5679 11.0562 13.6411 11.0298C13.7144 11.0034 13.7879 10.977 13.8582 10.9536L14.7847 10.6486C14.7896 10.6486 14.7944 10.6466 14.8001 10.6443C14.8082 10.6409 14.8179 10.6369 14.8316 10.6369C14.902 10.6252 14.9372 10.6604 14.9372 10.7776C14.902 10.9184 14.8551 11.0591 14.8082 11.1881C14.7026 11.4344 14.5853 11.6807 14.4563 11.9152C14.2218 12.3257 13.9403 12.701 13.6119 13.0411C13.5416 13.1115 13.4712 13.1818 13.4008 13.2639C13.3188 13.346 13.2397 13.428 13.1606 13.51C13.0814 13.5921 13.0021 13.6744 12.92 13.7565C12.8747 13.8018 12.8343 13.8519 12.7925 13.9038C12.7693 13.9325 12.7457 13.9618 12.7206 13.991L12.6802 14.036L12.6758 14.05C12.6627 14.0762 12.5895 14.1523 12.4888 14.2498L12.4157 14.3311C12.3923 14.3663 12.3688 14.4015 12.3336 14.425C12.3232 14.4354 12.3034 14.4365 12.291 14.4367C12.0468 14.6631 11.7691 14.9086 11.7231 14.9414C11.4066 15.2462 11.0784 15.5509 10.7501 15.8557L10.5856 16.0203C10.5797 16.0144 10.5738 16.0115 10.568 16.0086C10.5621 16.0056 10.5562 16.0027 10.5504 15.9969L10.4448 15.8913C10.4741 15.8209 10.5035 15.7476 10.5328 15.6743C10.5621 15.601 10.5914 15.5277 10.6207 15.4574L10.6985 15.2749C10.8716 14.8689 11.0424 14.4684 11.1954 14.05C11.3184 13.7138 11.43 13.3718 11.5421 13.0281C11.5902 12.8804 11.6386 12.7321 11.688 12.5841C11.7182 12.4834 11.7397 12.3741 11.7601 12.2709L11.7701 12.2205C11.7818 12.1971 11.7818 12.1619 11.7701 12.1384C11.7349 12.0446 11.6997 11.9508 11.6528 11.857C11.6059 11.7866 11.5941 11.7045 11.5941 11.6224C11.6 11.5286 11.6088 11.4377 11.6176 11.3468C11.6264 11.2559 11.6352 11.165 11.6411 11.0712C11.6636 10.7889 11.6754 10.4956 11.6867 10.2125L11.688 10.1799C11.6997 10.0743 11.7231 9.99225 11.7701 9.91016Z" fill="black"/>
<path d="M15.3052 11.8839C15.3739 11.8876 15.4475 11.8868 15.5081 11.8863C15.5807 11.8855 15.6347 11.885 15.6397 11.8925L15.7452 11.869C15.8547 11.8508 15.9624 11.8236 16.0697 11.7966C16.2383 11.7542 16.4059 11.712 16.5779 11.7048L16.8594 11.6696C16.9063 11.6579 16.9415 11.6462 16.9766 11.6227C17.0705 11.5524 17.1643 11.4703 17.2464 11.3882C17.5513 11.1184 17.8679 10.8721 18.1963 10.661C18.5218 10.4469 18.8411 10.2202 19.1587 9.99475C19.2759 9.91153 19.3929 9.82848 19.5098 9.74628C19.6154 9.67592 19.6975 9.5821 19.7678 9.47655C19.7327 9.46482 19.6975 9.45309 19.674 9.46482C19.6154 9.46482 19.545 9.46482 19.4864 9.47655C19.3535 9.5 19.2205 9.53388 19.0876 9.56776C19.0212 9.5847 18.9547 9.60164 18.8883 9.61728C18.828 9.63234 18.7418 9.65204 18.6409 9.67509C18.4543 9.71771 18.2177 9.77177 18.0028 9.82906C17.8707 9.78811 17.7687 9.75139 17.7863 9.73384C17.3289 9.14746 16.9067 8.56107 16.6252 7.88086C16.5783 7.90431 16.5314 7.92777 16.4962 7.96295C16.466 7.99018 16.4357 8.01662 16.4057 8.04289C16.3192 8.11844 16.2344 8.1926 16.1561 8.2796C16.0037 8.43204 15.863 8.58447 15.7222 8.73691C15.651 8.80814 15.5884 8.88377 15.5266 8.9584C15.4866 9.00664 15.447 9.0545 15.4055 9.10054C15.3703 9.13573 15.3586 9.19437 15.3821 9.24128C15.4994 9.60484 15.558 9.9684 15.5814 10.3437C15.5814 10.461 15.5697 10.5665 15.5345 10.6721C15.4057 11.0235 15.2652 11.3631 15.1246 11.7028L15.1242 11.7037C15.1098 11.7253 15.0997 11.7517 15.0914 11.7766C15.0879 11.7839 15.0857 11.7907 15.0849 11.7971L15.084 11.7999L15.0772 11.8214C15.0654 11.88 15.0889 11.9035 15.1475 11.9152C15.1944 11.9269 15.2296 11.9269 15.2648 11.9269L15.2882 11.9035L15.3052 11.8839Z" fill="black"/>
<path d="M11.6446 3.39077C11.6673 3.37827 11.6896 3.36598 11.7111 3.3537C11.7111 3.28333 11.6759 3.24815 11.5938 3.24815C11.4296 3.24815 11.2654 3.22469 11.1012 3.16606C10.9957 3.13087 10.8901 3.10742 10.7729 3.08396C10.3741 3.01359 9.97538 2.88459 9.61182 2.70867C9.57663 2.70867 9.55318 2.69695 9.52972 2.68522C9.4359 2.66176 9.41245 2.68522 9.42417 2.77904L9.43863 2.85568C9.46879 3.01518 9.49776 3.16835 9.51799 3.33024C9.56491 3.62344 9.60009 3.9049 9.63527 4.1981C9.65843 4.35245 9.67142 4.51189 9.68429 4.66971C9.69097 4.75172 9.69762 4.83329 9.70564 4.91349C9.74082 5.24187 9.776 5.55851 9.81119 5.87516C9.8581 6.23872 9.89328 6.60228 9.91674 6.96584C9.92882 7.10484 9.9378 7.24694 9.94686 7.39056C9.95539 7.52563 9.96401 7.6621 9.97538 7.79851C9.97538 7.90406 9.9871 8.02134 9.99883 8.12689C10.0106 8.19726 10.0457 8.2559 10.1044 8.29108C10.1102 8.27349 10.119 8.25883 10.1278 8.24417C10.1366 8.22951 10.1454 8.21485 10.1513 8.19726C10.1982 8.02134 10.2334 7.84543 10.2686 7.65778C10.3331 7.27663 10.3976 6.89255 10.4621 6.50846C10.5266 6.12438 10.5911 5.74029 10.6556 5.35914C10.6908 5.14226 10.7289 4.92538 10.767 4.70849C10.8051 4.49152 10.8432 4.27434 10.8784 4.05736C10.8901 3.95181 10.9488 3.86972 11.0309 3.81108C11.1716 3.70554 11.3123 3.59998 11.4531 3.50616C11.5136 3.4629 11.5807 3.42597 11.6446 3.39077Z" fill="black"/>
<path d="M6.93799 11.4336C7.04354 11.5274 7.12563 11.5978 7.20773 11.6681C7.59474 12.0317 7.99349 12.3718 8.41568 12.7119C8.49387 12.7745 8.57205 12.8266 8.65024 12.8787C8.68933 12.9048 8.72842 12.9308 8.76752 12.9582C8.78598 12.9674 8.80202 12.9791 8.81565 12.9927C8.8876 13.0001 8.96342 13.0092 9.03326 13.0175C9.15949 13.0327 9.26618 13.0454 9.29525 13.0413C9.3363 13.0354 9.38028 13.0237 9.42426 13.012C9.46824 13.0002 9.51221 12.9885 9.55326 12.9826C9.81127 12.924 10.0693 12.8654 10.3273 12.795C10.4211 12.7657 10.5149 12.7334 10.6087 12.7012C10.7026 12.6689 10.7964 12.6367 10.8902 12.6074C10.9371 12.5839 10.9958 12.5722 11.0544 12.5604C11.1365 12.5487 11.16 12.5722 11.1482 12.6543C11.1482 12.7129 11.1365 12.7833 11.113 12.8419C11.0858 12.9297 11.0593 13.0167 11.033 13.1032C10.9575 13.3516 10.8834 13.5952 10.7964 13.8388C10.6322 14.3665 10.4446 14.8943 10.2335 15.3986C10.2431 15.4465 10.2291 15.4788 10.2109 15.521L10.2033 15.5388L10.1983 15.551C10.1748 15.5276 10.1396 15.4924 10.1045 15.4689C10.0655 15.443 10.0265 15.4154 9.98699 15.3874C9.91941 15.3396 9.85005 15.2905 9.77609 15.2461C9.68227 15.1992 9.57672 15.164 9.47117 15.164C9.33043 15.164 9.1897 15.1523 9.04897 15.1406C9.02167 15.1406 8.96148 15.1505 8.89012 15.1622C8.8125 15.175 8.72166 15.19 8.64563 15.1968C8.64332 15.2008 8.64092 15.2051 8.63851 15.2099L7.8293 15.292C7.81757 15.2803 7.80584 15.2568 7.80584 15.2451C7.78434 15.1708 7.76251 15.0966 7.74068 15.0223C7.63156 14.6509 7.52242 14.2795 7.45401 13.9081C7.41883 13.7234 7.36385 13.5387 7.30888 13.354C7.29056 13.2924 7.27223 13.2309 7.25464 13.1693C7.22933 13.0608 7.2029 12.9524 7.1764 12.8436C7.11692 12.5994 7.05703 12.3536 7.00836 12.1021C6.9849 11.9262 6.96144 11.7502 6.94972 11.5743C6.93799 11.5274 6.93799 11.4922 6.93799 11.4336Z" fill="black"/>
<path d="M11.3132 4.79486C11.3094 4.78867 11.3049 4.78142 11.3004 4.77246C11.2887 4.81937 11.277 4.85455 11.2535 4.87801C11.2359 4.98356 11.2213 5.08911 11.2066 5.19466C11.192 5.30017 11.1773 5.40579 11.1597 5.51131C11.1169 5.76256 11.0766 6.01137 11.0365 6.25885C10.9886 6.55426 10.941 6.84794 10.89 7.14147C10.8422 7.40695 10.7968 7.67003 10.7516 7.9318C10.6971 8.24817 10.6428 8.56272 10.5851 8.87717C10.5147 9.229 10.4795 9.56911 10.4678 9.92094C10.4678 9.95612 10.4795 9.9913 10.4912 10.0265C10.5616 10.1203 10.6437 10.2259 10.7375 10.3314C10.7628 10.2607 10.7902 10.1943 10.817 10.1295C10.8524 10.0438 10.8867 9.9608 10.9134 9.87403L10.9175 9.86307L11.2771 9.74521C11.3005 9.71003 11.3123 9.68657 11.324 9.65139C11.3592 9.52238 11.4296 9.40511 11.5116 9.31129C11.5913 9.20508 11.6776 9.11224 11.7656 9.01763C11.7942 8.98687 11.823 8.95592 11.8517 8.92427C12.1332 8.63108 12.4264 8.36134 12.7431 8.10333C12.9687 7.92974 13.188 7.7433 13.4055 7.55828C13.4819 7.49336 13.5582 7.42844 13.6344 7.36448C13.693 7.30584 13.7516 7.25893 13.822 7.21202C13.8924 7.16511 13.951 7.10647 13.9745 7.02437C14.0541 6.83852 14.1405 6.65934 14.2284 6.47676C14.257 6.4174 14.2858 6.35768 14.3146 6.29726C14.3244 6.2743 14.3343 6.25318 14.3438 6.23261C14.3685 6.17964 14.3915 6.13027 14.4084 6.0627C14.4319 5.96888 14.4084 5.93369 14.3146 5.95715C14.2196 5.97779 14.1232 5.99697 14.0264 6.01624C13.8484 6.05167 13.6682 6.08753 13.4936 6.13307C13.3236 6.17998 13.1565 6.22982 12.9893 6.27967C12.8222 6.32951 12.6551 6.37935 12.485 6.42626C12.4381 6.43799 12.4147 6.47317 12.403 6.50835C12.3675 6.60048 12.2818 6.56266 12.1761 6.47341C12.1914 6.41999 12.1888 6.35993 12.1683 6.30879C12.1136 6.19152 12.0484 6.08467 11.9833 5.97781C11.9507 5.92439 11.9181 5.87096 11.8868 5.81623C11.793 5.65204 11.6992 5.48492 11.6054 5.3178C11.5116 5.15071 11.4177 4.98353 11.3239 4.81937C11.3239 4.81212 11.3194 4.80488 11.3132 4.79486Z" fill="black"/>
<path d="M17.1176 7.59961C17.3873 7.61134 17.6571 7.65825 17.9151 7.72861C18.5116 7.9087 19.0541 8.1968 19.6048 8.48926L19.6742 8.5261C19.8032 8.59647 19.9322 8.67856 20.0495 8.77238C20.1551 8.83102 20.1785 8.96003 20.1199 9.06558C20.0964 9.10076 20.0612 9.13594 20.0143 9.1594C19.9557 9.19458 19.8971 9.20631 19.8267 9.21804C19.3928 9.27668 18.9706 9.35877 18.5484 9.47605C18.4412 9.50283 18.3341 9.53641 18.2218 9.57161C18.1866 9.58265 18.1508 9.59386 18.1144 9.60505C18.0675 9.62851 18.0089 9.60505 17.9737 9.56987C17.833 9.41741 17.704 9.26495 17.5867 9.10076C17.3169 8.72547 17.0941 8.315 16.8948 7.8928L16.8596 7.82244C16.8478 7.6817 16.8713 7.64652 17.012 7.63479L17.1176 7.59961Z" fill="black"/>
<path d="M6.15849 22.0507C6.16833 22.046 6.17798 22.0414 6.18718 22.0368C6.18718 22.025 6.18718 22.0133 6.17545 22.0133C5.88226 21.3096 5.46006 20.6763 5.03786 20.043C5.01441 20.0118 4.99095 19.9909 4.9675 19.9701C4.95577 19.9597 4.94404 19.9492 4.93231 19.9375C4.77985 19.9844 4.65085 20.0196 4.51011 20.043C4.07619 20.1251 3.63053 20.1838 3.18488 20.219C3.0676 20.2307 3.05587 20.2659 3.11451 20.3597C3.18487 20.4535 3.26695 20.5473 3.34903 20.6411C3.57186 20.8874 3.81818 21.1103 4.07619 21.3214C4.35765 21.5559 4.66257 21.7436 4.99095 21.896C5.27242 22.025 5.56561 22.1071 5.87053 22.1423C5.88191 22.1423 5.89416 22.1428 5.90679 22.1432C5.95926 22.1451 6.01809 22.1472 6.04645 22.1189C6.07473 22.0906 6.11817 22.0699 6.15849 22.0507Z" fill="black"/>
<path d="M8.66179 9.441C8.57969 9.51137 8.47414 9.54655 8.36859 9.57001C8.25676 9.59632 8.14862 9.62632 8.0421 9.65588C7.95872 9.67901 7.87633 9.70187 7.79393 9.72247C7.72357 9.7342 7.66493 9.76938 7.61802 9.81629C7.59456 9.85147 7.53592 9.85148 7.50074 9.82802L7.48901 9.81629C7.4421 9.76938 7.39519 9.72247 7.36001 9.66383C7.18409 9.441 7.0199 9.21818 6.85572 8.98362C6.71463 8.78207 6.55623 8.61516 6.39539 8.44568C6.36905 8.41793 6.34264 8.3901 6.31624 8.36205C6.17171 8.20231 6.03212 8.03764 5.89106 7.87124C5.81469 7.78114 5.73773 7.69035 5.65949 7.59975C5.59412 7.52349 5.5996 7.51807 5.66651 7.45187L5.68294 7.43556C5.75331 7.36519 5.85886 7.34174 5.95268 7.35347C6.05823 7.35933 6.16085 7.36226 6.26346 7.36519C6.36608 7.36813 6.4687 7.37106 6.57425 7.37692C6.62116 7.37692 6.66514 7.37985 6.70912 7.38278C6.7531 7.38572 6.79708 7.38865 6.84399 7.38865C6.85962 7.38865 6.87526 7.39907 6.8909 7.4095C6.89872 7.41471 6.90654 7.41992 6.91435 7.42383C7.18886 7.73338 7.46627 8.04583 7.74369 8.3583L7.75037 8.36583C8.02776 8.67825 8.30523 8.99077 8.57969 9.30027C8.59142 9.34718 8.62661 9.39409 8.66179 9.441Z" fill="black"/>
<path d="M2.92705 6.88379C2.2703 7.3529 1.71909 7.93929 1.27344 8.60777C1.28517 8.6195 1.30862 8.63122 1.35553 8.64295L1.91846 8.91269C2.15285 9.02038 2.39407 9.10754 2.63475 9.1945C2.83964 9.26853 3.04417 9.34243 3.2437 9.42871C3.31406 9.46389 3.39616 9.46389 3.4548 9.41698C3.51344 9.15897 3.50171 8.87751 3.43134 8.61949C3.41962 8.57259 3.40789 8.53741 3.39616 8.50223C3.31407 8.18558 3.23197 7.88065 3.14988 7.57573C3.10807 7.41686 3.05434 7.25204 3.00144 7.08976C2.98015 7.02443 2.95897 6.95947 2.93878 6.89552C2.93878 6.88379 2.92705 6.88379 2.92705 6.88379Z" fill="black"/>
<path d="M3.3491 10.5898C3.61883 10.5898 3.88857 10.6837 4.1114 10.8479C4.28732 10.9651 4.46323 11.0824 4.63915 11.2114C4.90889 11.4108 5.13171 11.6571 5.30763 11.9385C5.36627 12.0089 5.35454 12.1145 5.28417 12.1731C5.26072 12.1965 5.22554 12.2083 5.20208 12.2083C5.13171 12.2317 5.06135 12.2317 4.99098 12.2317C4.7447 12.22 4.49842 12.22 4.26386 12.2435C4.12313 12.2435 3.97067 12.2317 3.82993 12.22C3.67747 12.1965 3.52501 12.1379 3.39601 12.0441C3.267 11.9737 3.138 11.8916 3.03245 11.7861L2.96565 11.713C2.75243 11.4806 2.54051 11.2496 2.43433 10.9417C2.39915 10.8361 2.41088 10.7892 2.51643 10.7658C2.66889 10.7188 2.83308 10.6837 2.99726 10.6485C3.08108 10.6112 3.17968 10.6036 3.27546 10.5961C3.3003 10.5942 3.32494 10.5923 3.3491 10.5898Z" fill="black"/>
<path d="M19.827 18.5069C19.9677 18.5421 20.1202 18.5655 20.2844 18.589C20.3547 18.4248 20.4251 18.2723 20.5072 18.1316C20.601 17.8619 20.7183 17.5921 20.8356 17.3341C20.8405 17.3142 20.8476 17.2943 20.855 17.2735C20.8651 17.2453 20.8757 17.2154 20.8825 17.1817C20.8942 17.1113 20.9059 17.0526 20.9294 16.994C21.0115 16.7829 21.0467 16.5601 21.0115 16.3373C21.0115 16.2903 20.988 16.2552 20.9646 16.2317C20.9059 16.1496 20.8004 16.1262 20.7183 16.1613C20.6245 16.1965 20.5306 16.2317 20.4485 16.2786C20.3078 16.3724 20.1788 16.4897 20.0615 16.6187C20.0146 16.6891 19.9443 16.7477 19.8856 16.7946C19.7097 16.9471 19.5572 17.1113 19.4282 17.2989C19.3461 17.4045 19.264 17.51 19.1937 17.6156C19.1352 17.7091 19.0762 17.8035 19.0178 17.9088C18.9708 18.0495 19.006 18.202 19.0999 18.3192C19.1116 18.331 19.135 18.3427 19.1468 18.3427L19.2124 18.3627C19.3045 18.3908 19.3918 18.4175 19.4869 18.4365C19.5924 18.46 19.7098 18.4834 19.827 18.5069Z" fill="black"/>
<path d="M1.64874 15.4108C1.33209 15.3991 1.01545 15.3053 0.745707 15.1411C0.534608 15.0238 0.358692 14.8596 0.217959 14.6603C0.112409 14.4843 0.0420427 14.2967 0.00685944 14.0973C-0.016596 13.9801 0.0185872 13.9331 0.135865 13.898C0.197767 13.8808 0.260678 13.8626 0.324007 13.8442C0.476573 13.8001 0.631761 13.7552 0.780891 13.722C0.921589 13.6908 1.08313 13.6595 1.24467 13.6282C1.32546 13.6126 1.40637 13.5969 1.48456 13.5813C1.66047 13.5461 1.69565 13.5696 1.75429 13.7455C1.78948 13.8393 1.81293 13.9214 1.82466 14.0152C1.89503 14.4023 2.00058 14.7893 2.11785 15.1646C2.16476 15.2936 2.12958 15.3522 1.98885 15.3757C1.88338 15.3874 1.76593 15.3991 1.64874 15.4108Z" fill="black"/>
<path d="M11.7349 18.0254C11.7846 18.0453 11.8344 18.0631 11.8832 18.0805C11.9495 18.1043 12.0142 18.1274 12.075 18.1544C12.4972 18.342 12.9194 18.4945 13.3533 18.6235C13.3767 18.6235 13.4002 18.6352 13.4237 18.647C13.6934 18.7525 13.9631 18.8463 14.2329 18.9167C14.6433 19.0457 15.0655 19.1395 15.4995 19.1864C15.4877 19.1923 15.4789 19.1982 15.4701 19.204C15.4614 19.2099 15.4526 19.2158 15.4408 19.2216C15.1242 19.3506 14.8075 19.4796 14.4909 19.6204C14.4088 19.6555 14.3267 19.7025 14.2446 19.7611C14.186 19.808 14.0921 19.808 14.0335 19.7494C13.7989 19.55 13.5409 19.3975 13.2477 19.3037C13.0836 19.2451 12.8959 19.2099 12.72 19.2099C12.6101 19.2177 12.495 19.2151 12.3816 19.2125C12.3256 19.2112 12.27 19.2099 12.2157 19.2099H11.8521C11.8521 19.1982 11.8404 19.1864 11.8404 19.1864C11.9444 19.0015 11.9118 18.8166 11.8771 18.6204L11.8756 18.6118C11.8404 18.4124 11.7935 18.2365 11.7349 18.0254Z" fill="black"/>
<path d="M18.8161 20.0625C18.8884 20.0543 18.8884 20.0543 18.8884 19.9361C18.5366 19.854 18.1847 19.7719 17.8212 19.6898C17.4341 19.6077 17.0589 19.5608 16.6718 19.5491C16.3317 19.5373 15.9916 19.5725 15.6633 19.6663C15.2997 19.7719 14.9361 19.9243 14.6078 20.1237C14.5022 20.1824 14.5022 20.2293 14.5843 20.3231C14.6312 20.37 14.6899 20.3817 14.7485 20.3583C15.03 20.2879 15.3232 20.2644 15.6163 20.2762C15.8509 20.2879 16.0737 20.3348 16.2848 20.4404C16.3552 20.4873 16.4373 20.4873 16.5077 20.4638C16.6015 20.4286 16.707 20.3934 16.8008 20.37C17.2348 20.2644 17.6687 20.1824 18.1144 20.1354C18.1854 20.128 18.2576 20.1193 18.3303 20.1106C18.4855 20.0919 18.6428 20.0731 18.7946 20.0651L18.8161 20.0625Z" fill="black"/>
<path d="M12.626 1.72374L12.5908 0.879346C12.5908 0.738613 12.6612 0.59788 12.7902 0.527513C13.013 0.398508 13.2476 0.281231 13.4821 0.175681C13.5642 0.152226 13.6463 0.152226 13.7284 0.163953C13.7753 0.163953 13.8105 0.199137 13.8222 0.246048V0.257775C13.8222 0.316414 13.8222 0.363325 13.8105 0.421964C13.7167 0.93798 13.6229 1.45401 13.529 1.98175L13.5202 2.03446C13.4999 2.15519 13.4807 2.26923 13.4704 2.39222C13.4704 2.45086 13.4235 2.49777 13.3766 2.52123C13.2007 2.60332 13.0248 2.69714 12.8489 2.79096C12.6729 2.88478 12.6377 2.88479 12.626 2.68542C12.6143 2.56814 12.6143 2.43914 12.6143 2.32186C12.626 2.11076 12.626 1.92311 12.626 1.72374Z" fill="black"/>
<path d="M11.7403 23.4602C11.7803 23.5617 11.8204 23.6634 11.84 23.7712H11.9104C11.9753 23.7712 12.0414 23.7699 12.1084 23.7687H12.1106C12.2487 23.766 12.3903 23.7633 12.5319 23.7712C12.8955 23.8064 13.2708 23.7712 13.6226 23.6657C13.8454 23.607 14.0448 23.5249 14.2325 23.4077C14.3146 23.3607 14.3732 23.2787 14.3967 23.1966C14.3967 23.1966 14.4084 23.1848 14.4084 23.1731C14.4436 23.0793 14.3849 22.9737 14.2911 22.9503C14.2442 22.9268 14.1856 22.9151 14.1386 22.9151C14.0441 22.9075 13.9484 22.8987 13.8522 22.8899C13.65 22.8714 13.446 22.8527 13.2473 22.8447C12.8369 22.8447 12.4147 22.8682 11.9925 22.9151C11.8635 22.9268 11.7345 22.962 11.6289 23.0206C11.6289 23.1777 11.6845 23.3188 11.7403 23.4602Z" fill="black"/>
<path d="M7.51562 3.81754C7.45305 3.8854 7.39221 3.95137 7.33674 4.0227C7.25464 4.11653 7.18427 4.21035 7.11391 4.3159C6.91454 4.70291 6.71516 5.08993 6.66825 5.53558C6.65653 5.60595 6.6448 5.67632 6.65653 5.75841C6.66825 5.81705 6.63307 5.8405 6.57443 5.8405C6.55098 5.8405 6.52752 5.83008 6.50406 5.81965C6.49234 5.81444 6.48061 5.80923 6.46888 5.80532C6.41024 5.75841 6.3516 5.69977 6.30469 5.64113C6.19914 5.5004 6.10532 5.34794 6.0115 5.19548C5.95521 5.104 5.91158 5.01253 5.86795 4.92105C5.83887 4.86006 5.80978 4.79908 5.77695 4.7381C5.71831 4.60909 5.6714 4.46836 5.65967 4.32763C5.65967 4.29244 5.6714 4.25726 5.69485 4.2338L5.97632 3.98752C6.0115 3.96407 6.04668 3.95234 6.08187 3.94061C6.37506 3.88197 6.65653 3.83506 6.94972 3.78815C7.16082 3.75297 7.38365 3.72951 7.60647 3.70605V3.71778C7.57606 3.752 7.54564 3.78499 7.51562 3.81754Z" fill="black"/>
<path d="M19.2166 11.8799H18.9352L18.2667 11.9737C18.1729 11.9972 18.1494 12.0323 18.1963 12.1144L18.208 12.1379C18.4074 12.4311 18.5716 12.736 18.7123 13.0644C18.7358 13.1699 18.8413 13.2286 18.9469 13.2168L18.9627 13.2151C19.0619 13.204 19.1516 13.194 19.2518 13.2051C19.545 13.2286 19.8381 13.2638 20.1313 13.2989C20.1548 13.3107 20.1783 13.2989 20.2017 13.2872C20.2369 13.2286 20.2487 13.1582 20.2252 13.0878C20.2018 13.0409 20.1783 12.994 20.1431 12.9471C20.0493 12.8298 19.9555 12.7155 19.8616 12.6011C19.7678 12.4868 19.674 12.3724 19.5802 12.2552C19.545 12.2083 19.5098 12.1643 19.4746 12.1203C19.4395 12.0763 19.4043 12.0323 19.3691 11.9854C19.3339 11.9268 19.2753 11.8916 19.2166 11.8799Z" fill="black"/>
<path d="M11.6408 3.00222C11.2889 2.93185 10.9371 2.86149 10.597 2.77939C10.4211 2.74421 10.2569 2.68557 10.0927 2.62693C9.95212 2.58007 9.82325 2.5332 9.69437 2.48633C9.5771 2.43942 9.56497 2.39238 9.63534 2.28683C9.67052 2.22819 9.71743 2.18128 9.77607 2.14609C9.86989 2.07573 9.97544 2.00536 10.081 1.94672C10.1396 1.91154 10.1865 1.88808 10.2452 1.86463C10.4211 1.79426 10.597 1.72389 10.7729 1.66526L10.984 1.59489C11.1013 1.54798 11.2303 1.61834 11.2655 1.72389V1.73562L11.5821 2.43929C11.6408 2.60347 11.6642 2.77939 11.6642 2.95531C11.6642 2.96255 11.6598 2.9698 11.6536 2.97982C11.6497 2.986 11.6453 2.99328 11.6408 3.00222Z" fill="black"/>
<path d="M8.72075 23.1271H8.66211C8.69307 23.1604 8.72355 23.1938 8.75394 23.227C8.87312 23.3574 8.9911 23.4865 9.13122 23.6079C9.15467 23.6197 9.18986 23.6314 9.22504 23.6314C9.25276 23.6314 9.27915 23.63 9.3051 23.6287C9.35591 23.6261 9.40532 23.6236 9.4596 23.6314L9.49255 23.6358C9.65885 23.6578 9.83483 23.6812 10.0108 23.7252C10.1457 23.7604 10.2776 23.7956 10.4095 23.8308C10.5414 23.8659 10.6735 23.9011 10.8083 23.9363C10.9607 23.9715 11.1367 23.9832 11.3009 23.9832C11.2891 23.948 11.2774 23.9246 11.2657 23.9011C11.2239 23.8281 11.2007 23.7457 11.1796 23.6705L11.1718 23.6431C11.1367 23.4672 11.0898 23.2913 11.0077 23.1271C10.9842 23.0567 10.9256 23.0098 10.8552 22.9864C10.7496 22.9629 10.6558 22.9512 10.5503 22.9512C10.4213 22.9629 10.2952 22.9805 10.1691 22.9981C10.043 23.0157 9.91697 23.0333 9.78797 23.045C9.43614 23.1036 9.07258 23.1271 8.72075 23.1271Z" fill="black"/>
<path d="M0.706348 10.6078C0.974687 10.899 1.2295 11.1755 1.55481 11.3991C1.53135 11.493 1.48444 11.5751 1.41408 11.6337C1.37171 11.67 1.32934 11.7071 1.28678 11.7444C1.16437 11.8516 1.04031 11.9602 0.909782 12.0559C0.783216 12.1527 0.647196 12.2447 0.513726 12.3351C0.437005 12.387 0.360966 12.4385 0.288212 12.4898C0.264756 12.5133 0.229573 12.525 0.206118 12.525C0.170934 12.5367 0.135751 12.5133 0.124023 12.4781V12.4195C0.135751 12.0324 0.19439 11.6337 0.288212 11.2584C0.295574 11.229 0.307556 11.1995 0.318359 11.173C0.324765 11.1572 0.330757 11.1425 0.335123 11.1294C0.348251 11.0638 0.365052 11.0018 0.381415 10.9415C0.394288 10.894 0.406889 10.8475 0.417217 10.801C0.440673 10.672 0.499311 10.5665 0.581405 10.4727C0.623519 10.5179 0.665176 10.5631 0.706348 10.6078Z" fill="black"/>
<path d="M1.68401 12.9942L2.02411 12.9356L2.02017 12.9122C2.0099 12.8517 2.00066 12.7973 2.00066 12.7245C1.96548 12.5603 2.0593 12.3961 2.22349 12.3609C2.28799 12.3433 2.34957 12.3286 2.41114 12.314C2.47271 12.2993 2.53427 12.2847 2.59877 12.2671C2.62662 12.2671 2.6618 12.2597 2.70433 12.2508L2.73951 12.2436C2.65049 12.1843 2.56519 12.1221 2.48072 12.0606C2.26482 11.9034 2.0541 11.7499 1.80129 11.6572C1.79542 11.669 1.78663 11.6807 1.77783 11.6924C1.76903 11.7041 1.76024 11.7159 1.75438 11.7276C1.62537 11.8918 1.48464 12.0325 1.30872 12.1498C1.07417 12.2905 0.827884 12.4313 0.593329 12.5603C0.464324 12.6424 0.452596 12.7245 0.546418 12.83C0.569874 12.8535 0.581601 12.8652 0.605057 12.8769C0.757517 12.959 0.909978 13.0294 1.07417 13.0997C1.17972 13.1466 1.29699 13.1466 1.40254 13.088C1.49637 13.0411 1.59019 13.0059 1.68401 12.9942Z" fill="black"/>
<path d="M8.69701 23.9719C8.55628 24.007 8.41554 24.007 8.27481 23.9836C8.15753 23.9601 8.05198 23.9367 7.94643 23.8898C7.64151 23.749 7.34832 23.6083 7.0434 23.4558C6.84403 23.362 6.66811 23.2213 6.52738 23.0571C6.45701 22.975 6.36319 22.8929 6.26937 22.8343C6.21307 22.7967 6.15678 22.763 6.10049 22.7292C6.01605 22.6785 5.93161 22.6279 5.84717 22.5645L6.01136 22.588C6.12863 22.5997 6.25764 22.6114 6.37492 22.6114C6.44528 22.6114 6.52738 22.5997 6.59774 22.5645C6.65013 22.5471 6.69602 22.5231 6.74508 22.4975C6.76188 22.4887 6.77919 22.4797 6.79712 22.4707C6.97303 22.588 7.14895 22.7053 7.32486 22.8343C7.65324 23.0688 7.96989 23.3034 8.28654 23.5379C8.41554 23.6435 8.53282 23.749 8.63837 23.8663C8.65211 23.8938 8.66585 23.9172 8.67723 23.9367C8.68528 23.9504 8.69215 23.9621 8.69701 23.9719Z" fill="black"/>
<path d="M17.4346 3.38295C17.4434 3.38588 17.4522 3.38881 17.458 3.38881C17.4697 3.25981 17.4697 3.1308 17.458 3.02525C17.4346 2.9197 17.3994 2.81415 17.3642 2.7086C17.3173 2.57373 17.2733 2.43886 17.2293 2.304C17.1854 2.16921 17.1413 2.03417 17.0945 1.89939C17.082 1.86703 17.0696 1.83414 17.057 1.80094L17.0565 1.7995C17.01 1.67677 16.962 1.5499 16.9068 1.43028C16.8834 1.37164 16.8364 1.37164 16.7895 1.40682C16.7661 1.42441 16.7456 1.44786 16.725 1.47131C16.7045 1.49476 16.684 1.51824 16.6605 1.53583C16.4377 1.77038 16.2501 2.02839 16.1093 2.32159C16.0741 2.38023 16.0859 2.43887 16.1328 2.48578L16.2031 2.55614C16.5667 2.88452 16.9772 3.15426 17.4111 3.37708C17.417 3.37708 17.4258 3.38002 17.4346 3.38295Z" fill="black"/>
<path d="M18.994 20.2305C18.9881 20.2481 18.9793 20.2657 18.9705 20.2832C18.9618 20.3008 18.953 20.3184 18.9471 20.336C18.8533 20.4533 18.7594 20.5706 18.6539 20.6761C18.5425 20.7875 18.4282 20.8959 18.3139 21.0044C18.1996 21.1128 18.0851 21.2215 17.9737 21.3329C17.915 21.415 17.7978 21.4267 17.7157 21.3681C17.7157 21.3681 17.7039 21.3681 17.7039 21.3563C17.5779 21.2753 17.4518 21.1873 17.3311 21.1031C17.2946 21.0776 17.2585 21.0525 17.2231 21.028C17.1058 20.9459 16.9768 20.8638 16.8596 20.7934C16.8361 20.7817 16.8244 20.77 16.8009 20.7465C16.7423 20.6996 16.7423 20.6409 16.8126 20.6058C16.8596 20.5706 16.9182 20.5471 16.9768 20.5354C17.0436 20.5215 17.1103 20.5069 17.1772 20.4923C17.3924 20.4454 17.6093 20.398 17.833 20.3712C18.1848 20.3126 18.5366 20.2774 18.9002 20.2422C18.9085 20.2256 18.9226 20.2266 18.9509 20.2286C18.9627 20.2295 18.9768 20.2305 18.994 20.2305Z" fill="black"/>
<path d="M15.4541 21.7837C15.476 21.8362 15.4983 21.8896 15.5225 21.943V21.9312H15.675L16.4021 21.9547C16.4431 21.9547 16.4842 21.9576 16.5252 21.9606C16.5663 21.9635 16.6073 21.9664 16.6484 21.9664C16.7891 21.9664 16.8477 21.8726 16.7774 21.7436C16.6015 21.4152 16.3317 21.1455 15.9916 20.993C15.7805 20.9109 15.5577 20.8406 15.3231 20.8171C15.2293 20.8054 15.1472 20.8171 15.0651 20.8406C14.983 20.864 14.9713 20.9227 15.0065 20.993C15.0124 21.0047 15.0212 21.0165 15.0299 21.0282C15.0387 21.0399 15.0475 21.0517 15.0534 21.0634C15.159 21.2276 15.2645 21.3918 15.3583 21.5677C15.3927 21.6364 15.423 21.7092 15.4541 21.7837Z" fill="black"/>
<path d="M9.45932 19.9372L9.38896 19.8903C9.34428 19.8593 9.3006 19.8284 9.25734 19.7977C9.15302 19.7239 9.05106 19.6516 8.9433 19.5853C8.82603 19.515 8.8143 19.4915 8.84948 19.3625C8.85534 19.3391 8.86121 19.3127 8.86707 19.2863C8.87293 19.2599 8.8788 19.2335 8.88467 19.21C8.90812 19.1162 8.91985 19.1045 9.0254 19.1045L9.40069 19.1162L11.066 19.1749H11.1364L11.1425 19.1778L11.151 19.1817C11.1725 19.1915 11.1973 19.2028 11.2068 19.2218C11.2068 19.257 11.195 19.2804 11.1716 19.3039C11.1481 19.3156 11.1247 19.3273 11.1012 19.3273C11.0074 19.3449 10.9166 19.3654 10.8258 19.3859C10.7349 19.4064 10.6438 19.427 10.55 19.4446C10.2099 19.4915 9.88152 19.6205 9.61179 19.8316C9.59188 19.8465 9.57198 19.8594 9.55118 19.8728C9.52297 19.8909 9.49307 19.9102 9.45932 19.9372Z" fill="black"/>
<path d="M12.533 22.4191C12.5858 22.4102 12.6425 22.4006 12.673 22.3296C12.6143 22.2827 12.5557 22.2475 12.4736 22.2123C12.3094 22.1185 12.1218 22.0364 11.9341 21.9895C11.7934 21.9426 11.6409 21.9191 11.4885 21.9074L11.4241 21.9026C11.1393 21.8815 10.8472 21.8599 10.5854 21.6963C10.603 21.8077 10.6206 21.9162 10.6382 22.0247C10.6558 22.1332 10.6734 22.2416 10.691 22.353C10.8786 22.353 11.0546 22.4351 11.1718 22.5641C11.207 22.5993 11.2539 22.6111 11.2891 22.5876C11.5471 22.5055 11.8286 22.4586 12.0983 22.4469C12.1687 22.441 12.2361 22.4381 12.3035 22.4351C12.371 22.4322 12.4384 22.4293 12.5088 22.4234C12.5167 22.4218 12.5248 22.4205 12.533 22.4191Z" fill="black"/>
<path d="M3.94723 14.976C3.9355 14.9818 3.92084 14.9877 3.90618 14.9936C3.89152 14.9994 3.87687 15.0053 3.86514 15.0112C3.65404 15.0346 3.44294 15.0815 3.23184 15.1402C3.11456 15.1753 3.00901 15.1988 2.89174 15.2105C2.82137 15.234 2.751 15.1871 2.72755 15.1167C2.72168 15.0991 2.71289 15.0815 2.70409 15.0639C2.6953 15.0463 2.6865 15.0287 2.68064 15.0112C2.64545 14.8939 2.6132 14.7795 2.58095 14.6652C2.5487 14.5508 2.51645 14.4365 2.48126 14.3192L2.46251 14.2512C2.43391 14.148 2.40671 14.0499 2.38744 13.9439C2.37572 13.897 2.36399 13.8501 2.4109 13.8267C2.44608 13.8032 2.49299 13.8149 2.52818 13.8501C2.56424 13.8822 2.6003 13.9156 2.63683 13.9494C2.7072 14.0147 2.77937 14.0816 2.85655 14.1433C3.14975 14.413 3.4664 14.6476 3.8065 14.847C3.85341 14.8704 3.90032 14.9056 3.94723 14.9408V14.976Z" fill="black"/>
<path d="M20.1315 11.7275C20.0963 11.7246 20.0612 11.7217 20.026 11.7158C19.9673 11.7275 19.9116 11.7363 19.8559 11.7451C19.8002 11.7539 19.7445 11.7627 19.6859 11.7745C19.6507 11.7745 19.6155 11.7862 19.5921 11.8214C19.5569 11.88 19.5686 11.9504 19.6272 11.9856C19.7562 12.1497 19.897 12.3139 20.0377 12.4781C20.2019 12.6657 20.3426 12.8886 20.4482 13.1114C20.4539 13.1228 20.4596 13.1349 20.4654 13.1473C20.4837 13.1861 20.5036 13.2284 20.5303 13.2639L20.5655 13.2991C20.6124 13.3342 20.671 13.3108 20.7062 13.2639C20.7531 13.2052 20.7766 13.1231 20.7531 13.0528C20.7283 12.9331 20.705 12.8119 20.6816 12.6902C20.6386 12.4665 20.5952 12.241 20.542 12.0207C20.5303 11.8683 20.4013 11.7393 20.2371 11.7393C20.2019 11.7334 20.1667 11.7305 20.1315 11.7275Z" fill="black"/>
<path d="M19.7092 6.67288C19.6975 6.66702 19.6887 6.66115 19.6799 6.65529C19.6711 6.64943 19.6623 6.64356 19.6506 6.6377C19.4043 6.41487 19.1228 6.20377 18.8414 6.02786C18.6889 5.91058 18.5599 5.78157 18.4426 5.62911C18.4387 5.62129 18.4335 5.61348 18.4283 5.60566C18.4179 5.59002 18.4074 5.57438 18.4074 5.55875C18.3722 5.46492 18.4074 5.41801 18.5012 5.39456C18.5423 5.3887 18.5863 5.38283 18.6302 5.37697C18.6742 5.37111 18.7182 5.36524 18.7593 5.35938C18.7871 5.35938 18.8076 5.36672 18.8324 5.37559C18.8389 5.37793 18.8457 5.38039 18.8531 5.38283C19.0407 5.48838 19.2166 5.60566 19.3808 5.73466C19.5685 5.89885 19.7209 6.10995 19.8265 6.33278C19.8617 6.39142 19.8499 6.46178 19.8148 6.50869C19.7796 6.56733 19.7444 6.62597 19.7092 6.67288Z" fill="black"/>
<path d="M5.83575 7.11867C6.07031 7.11867 6.30486 7.10694 6.52769 7.07176C6.42214 6.90757 6.29313 6.74338 6.1524 6.59092C6.09324 6.52331 6.00972 6.50442 5.92818 6.48598C5.89656 6.47883 5.86524 6.47174 5.83575 6.46191H5.77711C5.61293 6.50882 5.44873 6.55574 5.28455 6.59092C5.20245 6.6261 5.14382 6.67301 5.0969 6.73165C5.07345 6.74338 5.06172 6.79029 5.07345 6.81375C5.08289 6.83074 5.09172 6.84803 5.10048 6.86519C5.14615 6.95462 5.18993 7.04035 5.308 7.06003C5.48392 7.09521 5.65984 7.11867 5.83575 7.11867Z" fill="black"/>
<path d="M15.0416 23.0093C15.0064 22.9272 14.9712 22.8568 14.936 22.7864C14.9126 22.7513 14.9243 22.6926 14.9595 22.6692C14.9947 22.634 15.0416 22.6105 15.0885 22.5871C15.37 22.4463 15.6866 22.376 16.0033 22.376C16.0502 22.376 16.1088 22.3877 16.1557 22.3994C16.2144 22.4112 16.2261 22.4581 16.1792 22.505C16.1716 22.5201 16.1591 22.5304 16.1449 22.5421C16.1372 22.5485 16.1288 22.5553 16.1205 22.5636C16.0033 22.6457 15.886 22.7278 15.757 22.7982C15.7004 22.8265 15.6363 22.8472 15.5767 22.8664L15.5341 22.8803L15.2058 22.9975C15.1471 23.021 15.1002 23.021 15.0416 23.0093Z" fill="black"/>
<path d="M8.56846 19.0455L7.80615 18.248C7.89997 18.5882 7.97034 18.9165 7.87652 19.2801L7.97034 19.2918C8.02311 19.2977 8.07882 19.3035 8.13453 19.3094C8.19023 19.3153 8.24594 19.3211 8.29872 19.327C8.42772 19.3505 8.48636 19.327 8.53327 19.198C8.545 19.1394 8.55673 19.0924 8.56846 19.0455Z" fill="black"/>
</svg>
