<?xml version="1.0" encoding="utf-8"?>
<!-- Generator: Adobe Illustrator 27.0.0, SVG Export Plug-In . SVG Version: 6.00 Build 0)  -->
<svg version="1.1" id="Layer_1" xmlns="http://www.w3.org/2000/svg" xmlns:xlink="http://www.w3.org/1999/xlink" x="0px" y="0px"
	 viewBox="0 0 179.2 204.7" style="enable-background:new 0 0 179.2 204.7;" xml:space="preserve">
<style type="text/css">
	.st0{fill:#FFFFFF;}
</style>
<g id="Layer_2_00000124852277701830707160000000504973846394833559_">
	<g id="Layer_1-2">
		<path class="st0" d="M93.7,141.8c1.3-0.9,2.6-1.9,3.9-2.8c0.6-0.4,1.3-0.8,2-1.2c1.1-0.7,2.4-1.2,3.7-1.6c1.2-0.3,2.3-0.9,3.4-1.2
			s2.1-0.6,3.2-0.9s2.2-0.4,3.3-0.7c2.7-0.7,5.6-0.9,8.4-0.5c1.4,0.2,2.8,0.8,3.9,1.8c1.7,1.5,3,3.3,3.9,5.3
			c0.9,1.8,1.8,3.5,2.9,5.1c1.4,2.1,2.6,4.3,3.6,6.6l2.9,6.6c-0.2,0.1-0.5,0.2-0.7,0.3c-2.3,0.4-4.7,0.5-7.1,0.1
			c-2.6-0.3-5.2-1-7.7-1.8c-0.5-0.2-1.1-0.3-1.6-0.5c-1.5-0.5-2.9-1-4.4-1.4c-0.8-0.2-1.5-0.5-2.3-0.8l-5.4-1.9
			c-3.6-1.3-7.3-2.5-10.9-3.9c-0.9-0.3-1.6-0.9-2.2-1.7C95.4,145.3,94.7,143.6,93.7,141.8z"/>
		<path class="st0" d="M62.9,161.9c-1,0.6-2,0.9-3.2,1.1c-1.2,0.1-2.4,0.3-3.6,0.4c-0.7,0.1-1.5,0.1-2.2,0c-1.4,0-2.8-0.1-4.1-0.1
			c-2,0-4-0.2-5.9-0.6c-0.7-0.1-1.2-0.5-1.6-1c-1.2-1.7-2.5-3.4-3.7-5.1c-2.3-3.3-4.7-6.6-7-10c-2.5-3.6-5.2-7.1-8-10.4
			c-0.1-0.1-0.2-0.2-0.2-0.3c0-0.1,0-0.1,0-0.2c0.6-2.1,2.2-2.4,4.1-2.4c2.2,0.1,4.4,0.2,6.5,0.3c3.1,0.1,6.2,0.7,9.1,1.7
			c2,0.7,4,1.6,5.8,2.8c0.3,0.2,0.7,0.5,0.9,0.8c1.3,1.5,2.6,3,3.9,4.5c0.6,0.7,1.2,1.4,1.7,2.1c1.2,1.8,2.3,3.7,3.4,5.6
			c0.9,1.6,1.8,3.2,2.7,4.8c0.8,1.5,1.2,3.2,1.4,4.9C62.9,161.1,62.9,161.5,62.9,161.9z"/>
		<path class="st0" d="M59.6,86.3L58,87.3c-0.2,0.2-0.5,0.4-0.7,0.5c-0.8,0.5-1.3,1.4-1.3,2.4c-0.3,4.7-0.2,9.4,0.5,14
			c0,0.2,0,0.4,0,0.6c-0.2-0.1-0.4-0.2-0.6-0.4c-2-1.8-4-3.5-6-5.4c-4.2-4-8.3-8.1-12.8-11.7c-1.6-1.2-3-2.7-4.5-4
			c-0.6-0.5-1-1.1-0.5-1.9c0.2-0.4,0.2-0.8,0.2-1.2c0.3-2.2,0.2-4.4-0.2-6.6c-0.7-2.9-1.4-5.9-2.2-8.9c-0.7-2.6-1.5-5.2-2.3-7.8
			c-0.1-0.4-0.3-0.7,0.1-1.1s0.6-0.4,1-0.2c0.5,0.2,0.9,0.5,1.4,0.9c0.9,0.8,1.8,1.6,2.7,2.3c1.9,1.7,3.8,3.3,5.7,5
			c0.9,0.8,1.8,1.7,2.7,2.6c1.8,1.8,3.4,3.6,5.3,5.2c3,2.7,5.8,5.6,8.5,8.7C56.3,82.3,57.9,84.3,59.6,86.3z"/>
		<path class="st0" d="M135.8,142.2c-0.5-0.9-1-1.6-1.5-2.4c-0.3-0.6-0.6-1.2-0.9-1.8c-1.2-2.8-3.1-5.2-5.5-7.1
			c-1.5-1.3-3.3-2.1-5.2-2.4c-3.5-0.5-7-0.3-10.4,0.5c-1.4,0.3-2.8,0.5-4.1,0.9c-1.2,0.3-2.3,0.7-3.4,1.1c-0.6,0.2-1.2,0.5-2,0.8
			c0.1-0.2,0.2-0.4,0.3-0.5l20-20.5c3,2.9,6.6,5,10,7.3c3.4,2.3,7,4.4,10.6,6.4c4,2,8.1,3.9,12.1,5.8l0.9,0.4
			c-0.5,0.3-0.8,0.6-1.2,0.8c-1.1,0.7-2.3,1.3-3.4,1.9c-4.3,2.4-8.6,4.8-12.9,7.2C138.1,141,137,141.6,135.8,142.2z"/>
		<path class="st0" d="M57.8,138.2c0.5-0.2,0.9-0.3,1.3-0.5c6.1-2,12.5-3,18.9-2.9c3.1,0,5.9,1.5,7.6,4.1c0.7,1,1.3,2,1.9,3
			c1.4,2.2,2.7,4.5,4.1,6.7c1.8,3.1,3.4,6.4,4.6,9.8c0.1,0.2,0.2,0.5,0.2,0.8c0.1,0.3-0.1,0.6-0.4,0.7c-0.1,0-0.1,0-0.2,0h-0.5
			c-5.8-0.1-11.6-0.2-17.4-0.2c-1,0-2-0.3-2.7-1c-2.6-2.2-5-4.5-7.2-7c-2-2.3-4.1-4.5-6-6.9c-1.4-1.8-2.5-3.8-3.7-5.7
			C58,138.8,57.9,138.5,57.8,138.2z"/>
		<path class="st0" d="M86.2,191.2c-1.1,0.1-2.2,0.3-3.2,0.4c-2.5,0.3-4.9,0.6-7.4,0.8c-2.1,0.3-4.1,0.3-6.2,0.2
			c-1.4-0.2-2.8-0.6-4-1.4c-2.2-1.4-4.3-2.9-6.4-4.3c-1.5-1-2.7-2.5-3.5-4.1c-1.5-3.2-3.2-6.3-5.2-9.2c-0.5-0.7-0.9-1.5-1.4-2.3
			c0.3-0.1,0.5-0.2,0.8-0.3c0.9-0.3,1.8-0.6,2.7-0.9c1.6-0.4,3.3-0.7,4.9-0.8c0.5-0.1,1.1-0.1,1.6-0.2c3-0.6,6-0.6,9-0.1
			c0.5,0.1,0.9,0.1,1.4,0.2c2.3,0.5,4.5,1.5,6.3,2.9c5.4,3.7,9.1,9.4,10.5,15.8C86.3,188.9,86.4,190,86.2,191.2z"/>
		<path class="st0" d="M79.8,84.7c1.7-0.1,3.4,0.6,4.6,1.9c1.5,1.5,2.8,3.1,4,4.9c1.6,2.4,3.2,4.7,4.6,7.2c0.7,1.3,1.5,2.6,2.2,3.9
			c0.4,0.5,0.3,1.2-0.2,1.6c-0.1,0.1-0.1,0.1-0.2,0.1l-0.1,0.1c-1.6,0.6-3,1.6-4.7,2c-3.5,0.8-6.9,1.7-10.4,2.4
			c-2.7,0.6-1.8,0.7-4.2-0.8c-3-2.1-5.9-4.4-8.5-7c-1.9-1.8-3.9-3.6-5.7-5.5c-0.7-0.7-1.2-1.5-1.7-2.4c-0.6-1.2-0.2-2.6,1-3.2
			c3.7-1.8,7.6-3.1,11.7-3.8c2-0.4,4.1-0.8,6.1-1.1C78.8,84.7,79.3,84.7,79.8,84.7z"/>
		<path class="st0" d="M85.2,172.3c0.6-0.3,1.1-0.6,1.6-0.9c2.1-0.9,4.2-1.5,6.5-1.8c0.5-0.1,0.9-0.1,1.4-0.2
			c3.3-0.8,6.8-1.1,10.2-0.9c1.3,0.1,2.6,0,3.9,0c0.6,0,1.2,0,1.8,0.2c1.5,0.4,2.9,1,4.2,1.9c1.3,0.9,2.5,1.8,3.7,2.8
			c0.3,0.3,0.6,0.6,0.8,0.9c2,2.5,3.8,5.2,5.2,8c0.7,1.2,1.5,2.4,2.2,3.6s0.6,1.4-0.4,2.1c-0.8,0.5-1.6,0.9-2.5,1.2
			c-1.7,0.4-3.5,0.6-5.3,0.4c-0.1,0-0.3,0-0.4-0.1c-1.8-0.6-3.6-1.1-5.3-1.7c-0.6-0.2-1.1-0.6-1.7-0.9c-1.7-1-3.3-2.1-5-3.1
			c-1.5-0.9-3.3-1.4-5.1-1.2c-2.7,0.1-5.3-0.5-7.6-1.8c-0.3-0.1-0.5-0.2-0.8-0.4c-1-0.4-1.9-1.1-2.7-1.9c-0.8-0.9-1.6-1.7-2.3-2.6
			c-0.4-0.4-0.7-0.9-1-1.4C86,173.9,85.6,173.1,85.2,172.3z"/>
		<path class="st0" d="M67.8,32c0.6,0.5,1,1.1,1.2,1.8c0.8,2,1.7,4,2.4,6c0.9,2.5,1.8,5,2.7,7.5c2,5.7,4,11.4,6,17.1
			c1.3,3.5,2.2,7.2,2.8,10.9c0.1,1.2,0.1,2.5-0.1,3.7c0,0.5-0.1,0.9-0.2,1.4c-0.7,0-1.4-0.4-1.8-1c-4.3-5.5-9-10.7-13.5-16
			c-0.8-0.9-1.4-2-2.2-3c-1.8-2.2-3.6-4.5-5.5-6.7c-0.3-0.4-0.8-0.9-0.4-1.5c0-0.1,0-0.2,0-0.3c-0.6-2.3-0.2-4.6,0.4-6.8
			c0.6-2.2,1.4-4.4,2.5-6.5c0.5-0.9,1.1-1.7,1.8-2.4c0.7-0.9,1.5-1.7,2.3-2.6C66.8,33.1,67.3,32.6,67.8,32z"/>
		<path class="st0" d="M6.9,142.3l2.3-0.9c2.6-1.1,5.3-1.8,8-2.3c0.1,0,0.2,0,0.3-0.1c1.6-0.6,2.7,0.2,3.6,1.4c2,2.5,3.9,5,5.8,7.6
			c1.3,1.8,2.5,3.7,3.8,5.6c1.7,2.5,3.5,4.9,5.3,7.3c0.9,1.2,1.7,2.3,2.5,3.5c0.1,0.1,0.1,0.2,0.2,0.4c-0.5,0.2-1.1,0.4-1.7,0.5
			c-3,0.4-5.9,0.7-8.9,1c-0.8,0.1-1.5,0.1-2.3,0.3c-0.9,0.2-1.9,0.1-2.7-0.4c-1.3-0.9-2.5-1.8-3.8-2.7c-1.8-1.3-3.5-2.7-5-4.3
			c-1.5-1.7-2.8-3.7-3.9-5.7c-0.6-1.1-1.2-2.2-1.7-3.3c-0.3-0.7-0.6-1.4-0.8-2.1c-0.4-1.5-0.7-3-1-4.5C7,143.2,6.9,142.7,6.9,142.3z
			"/>
		<path class="st0" d="M106.4,52.4c-0.8,0.1-1.5-0.3-1.9-1c-1.5-2.6-3-5.2-4.4-7.9c-0.9-1.7-1.8-3.4-2.7-5.1
			c-0.6-0.9-0.4-2.2,0.5-2.8c0,0,0,0,0.1,0c1.2-0.9,2.4-1.8,3.7-2.6c1.8-1.2,3.5-2.3,5.3-3.5c0.8-0.5,1.7-1,2.6-1.4
			c1-0.5,2.1-0.9,3.1-1.4s2-0.8,3-1.2c0.7-0.3,1.5,0,1.8,0.7c0.5,0.9,1,1.9,1.3,2.9c0.8,2.2,1.5,4.4,2.1,6.7c1,2.8,1.7,5.7,2.1,8.6
			c0.1,1,0.2,2,0.3,3c0.1,0.5-0.2,0.9-0.7,1c0,0,0,0,0,0c-2.9,0.8-5.8,1.6-8.7,2.3c-2.3,0.6-4.6,1-6.9,1.5
			C106.8,52.3,106.6,52.4,106.4,52.4z"/>
		<path class="st0" d="M22,109.5c0.5-0.1,0.9-0.1,1.4-0.2c2.1-0.1,4.3-0.2,6.4-0.3c2.6-0.1,5.2-0.3,7.7-0.3c1.8,0,3.5,0.1,5.3,0.2
			c0.7,0.1,1.3,0.3,1.9,0.7c1.5,0.9,2.8,1.9,4.1,3.1c0.3,0.3,0.7,0.6,0.9,1c1.9,2.9,3.9,5.8,5.6,8.8c1.5,2.6,2.7,5.3,4,8
			c0.2,0.3,0.3,0.6,0.4,0.9c0.1,0.4-0.1,0.7-0.5,0.6c-3.9-0.6-7.9-1.2-11.5-3.1c-2.4-1.2-5-2.1-7.4-3.3c-5.1-2.4-9.9-5.6-14-9.5
			c-1.7-1.6-3-3.5-3.9-5.7C22.3,110.2,22.2,109.9,22,109.5z"/>
		<path class="st0" d="M157.8,127.9c-0.4-0.1-0.8-0.2-1.2-0.3c-0.9-0.4-1.8-0.7-2.7-1.1c-1.8-0.8-3.6-1.7-5.5-2.5
			c-3.3-1.5-6.5-3.2-9.5-5.2c-3.7-2.4-7.4-4.9-11.1-7.3c-0.9-0.6-1.7-1.3-2.5-2c-0.8-0.7-0.7-1.3,0.3-1.6c3.7-1.5,7.5-2.6,11.4-3.3
			c2-0.3,4-0.6,6.1-0.9c2.2-0.3,4.4-0.1,6.5,0.7c0.8,0.3,1.4,0.7,1.9,1.4c1.3,1.7,2.3,3.6,3,5.6c1.6,4.6,2.7,9.3,3.3,14.1
			c0,0.3,0,0.7,0,1C157.9,126.7,157.8,127.2,157.8,127.9z"/>
		<path class="st0" d="M159.2,155.7c-0.5,0-1,0-1.5,0c-2.2-0.2-4.5-0.2-6.7,0c-2.1,0.2-4.1,0.3-6.2,0.5c-0.6,0.1-1.3,0.1-1.9,0.2
			c-0.1-0.1-0.2-0.3-0.2-0.4c-1.4-3.1-2.7-6.2-4.1-9.3c-0.4-0.8-0.2-1.8,0.6-2.3c2.2-1.5,4.5-2.8,7-3.9c2.3-1,4.6-2,6.9-2.8
			c2.5-0.9,5.1-1.6,7.8-1.9c2.8-0.3,5.6-0.1,8.3-0.2c1.2,0,2.4,0.2,3.5,0.7c0.1,0,0.2,0.2,0.3,0.3c-0.7,0.6-1.4,1.2-2.1,1.7
			c-2.4,1.8-4.6,3.9-6.6,6.2c-0.7,0.7-1.4,1.4-2.1,2.2c-1.5,1.5-2.6,3.4-3.3,5.5C158.6,153.3,158.7,154.5,159.2,155.7z"/>
		<path class="st0" d="M119.5,65.9c1.7,2.5,3.2,5.2,4.3,8c1.6,3.9,2.8,8,3.5,12.1c0.1,0.4,0.1,0.9,0.1,1.3c0,0.6-0.4,1.1-0.9,1.2
			c-3.9,1.3-7.9,2.6-11.8,3.9c-0.7,0.3-1.4,0.1-1.9-0.3c-2.5-1.9-4.8-3.9-7-6.1c-1.1-1.1-2.2-2.1-3.3-3.2c-0.7-0.6-0.7-0.7-0.2-1.4
			c0.5-1,1.2-1.8,2-2.6c1.9-1.8,3.7-3.6,5.6-5.4c0.8-0.8,1.7-1.5,2.6-2.2c2-1.6,4-3.2,6-4.7C118.7,66.3,119.1,66.1,119.5,65.9z"/>
		<path class="st0" d="M129,73.4c-1.5-3-3.6-5.6-4.9-8.7c0.7-0.9,1.5-1.7,2.4-2.4c1.3-1.1,2.8-2.2,4.2-3.2c2.3-1.4,4.6-2.7,7-4
			c0.6-0.3,1.2-0.6,1.8-1c4.6-2.8,9.4-5,14.5-6.7c0.3-0.1,0.7-0.2,1.1-0.3c0.1,0.6,0.2,1.3,0.4,1.9c0.6,1.6,1.8,2.8,3.3,3.6
			c1.8,1.1,3.6,2.3,5.3,3.6c0.7,0.5,1.3,1.2,1.8,2c-1.7,0.5-3.3,1-4.9,1.5c-2.1,0.7-4.1,1.5-6.2,2.4c-0.5,0.2-1,0.3-1.5,0.1
			c-0.6-0.2-1.2-0.3-1.7-0.5c-2.7-0.9-5.6-1.1-8.4-0.6c-0.3,0.1-0.7,0.1-1,0.3c-2.2,1-4.2,2.5-5.8,4.3c-2.1,2.4-4.3,4.7-6.5,7
			C129.6,73,129.3,73.2,129,73.4z"/>
		<path class="st0" d="M100.3,84.5c0.6,0.4,1.1,0.7,1.6,1.1c2.9,2.5,5.8,5.1,8.7,7.6c0.6,0.4,0.9,1.3,0.5,2
			c-3.2,10.1-6.3,20.1-9.5,30.2c-0.4,0.8-1,1.5-1.7,2c-2.7,2.6-5.5,5.2-8.3,7.8c-0.5,0.5-0.9,0.9-1.4,1.4c-0.1-0.1-0.2-0.1-0.3-0.2
			c-0.3-0.3-0.6-0.6-0.9-0.9c0.5-1.2,1-2.5,1.5-3.7c1.7-4,3.4-7.9,4.9-12s2.8-8.3,4.2-12.5c0.3-1,0.5-2.1,0.7-3.1
			c0.1-0.2,0.1-0.5,0-0.7c-0.3-0.8-0.6-1.6-1-2.4c-0.4-0.6-0.5-1.3-0.5-2c0.1-1.6,0.3-3.1,0.4-4.7c0.2-2.5,0.3-5.1,0.4-7.6
			C99.7,85.9,99.9,85.2,100.3,84.5z"/>
		<path class="st0" d="M126.5,52.6c0.1-0.2,0.1-0.4,0.2-0.6c1.5-2.3,1.3-4.8,0.8-7.4c-0.2-1.3-0.5-2.6-0.7-4c0-0.3,0-0.7,0.2-1
			c2.5-5.4,5.4-10.6,8.4-15.7c0.1-0.2,0.3-0.4,0.5-0.7c0.2-0.2,0.4-0.4,0.6-0.6c3.5,3.4,7.7,6.1,12.2,8c0,0.1-0.1,0.3-0.1,0.4
			c-0.8,1.2-1.7,2.4-2.5,3.7c-2.6,4-5.2,8-7.7,12c-0.9,1.6-2.2,3-3.8,4c-2.7,1.6-5.3,3.5-7.9,5.2c-0.3,0.2-1.8,1.3-2.3,1.7
			C124.5,57.1,126,53.7,126.5,52.6z"/>
		<path class="st0" d="M151.6,83c-0.4,0.4-0.8,0.7-1.2,1c-3.8,2.5-7.5,5.3-10.9,8.4c-3.3,2.8-6.4,5.8-9.2,9.1
			c-0.1,0.1-0.2,0.2-0.2,0.2c-0.3,0-0.6,0-1-0.1c-0.5-0.1-0.7-0.3-0.6-0.8c0.1-0.3,0.2-0.7,0.4-1c1.2-2.9,2.4-5.8,3.5-8.8
			c0.3-0.9,0.4-1.8,0.4-2.8c-0.2-3.2-0.7-6.3-1.7-9.4c-0.2-0.4-0.1-0.9,0.2-1.2c0.9-1,1.7-2.1,2.7-3.1c1.2-1.3,2.4-2.6,3.7-3.9
			c0.9-1,1.9-1.8,2.9-2.7c0.3-0.3,0.7-0.5,1.1-0.7C144.1,73,147.7,78,151.6,83z"/>
		<path class="st0" d="M99.8,28.6c-0.7,0.4-1.5,0.8-2.2,1.3c-1.2,0.8-2.4,1.7-3.6,2.6c-0.7,0.5-1.2,1.2-1.3,2.1
			c-0.6,3.7-1.3,7.4-1.9,11.1c-1.1,6.5-2.2,13.1-3.3,19.6c-0.3,1.6-0.6,3.1-1,4.6c-0.1,0.3-0.3,0.5-0.4,0.8
			c-0.5-0.3-0.8-0.8-0.9-1.4c-0.1-0.9-0.2-1.9-0.2-2.8c-0.2-2.4-0.3-4.8-0.5-7.1c-0.2-3.1-0.5-6.2-0.9-9.3c-0.3-2.7-0.6-5.4-0.9-8.2
			c-0.2-2-0.3-4.1-0.6-6.1c-0.3-2.5-0.6-4.9-1-7.4c-0.2-1.6-0.5-3.1-0.8-4.7c-0.1-0.8,0.1-1,0.9-0.8c0.2,0.1,0.4,0.2,0.7,0.2
			c3.1,1.5,6.5,2.6,9.9,3.2c1,0.2,1.9,0.4,2.8,0.7c1.4,0.5,2.8,0.7,4.2,0.7C99.5,27.7,99.8,28,99.8,28.6z"/>
		<path class="st0" d="M59.1,97.5c0.9,0.8,1.6,1.4,2.3,2c3.3,3.1,6.7,6,10.3,8.9c1,0.8,2,1.4,3,2.1c0.6,0.3,0.9,0.9,0.9,1.6
			c-0.1,0.9-0.1,1.9-0.2,2.8c-0.2,1.4-0.4,2.9-0.5,4.3c-0.1,0.7,0,1.4-0.1,2.1c-0.3,2.6-0.7,5.2-1,7.9c0,0.2-0.1,0.3-0.2,0.5
			l-6.9,0.7c-0.1-0.1-0.2-0.3-0.2-0.4c-1.1-3.8-2.3-7.6-3-11.4c-0.4-2.1-1.1-4.2-1.7-6.3c-0.7-3-1.5-6-2.1-9.1
			c-0.2-1.5-0.4-3-0.5-4.5C59.1,98.3,59.1,98,59.1,97.5z"/>
		<path class="st0" d="M86.9,132.6c-0.2-0.2-0.5-0.5-0.8-0.7c-0.9-0.6-1.8-1.3-2.8-1.9c-0.8-0.4-1.7-0.7-2.6-0.7
			c-1.2,0-2.4-0.1-3.6-0.2c-0.8,0-0.9-0.1-0.8-0.9c0.3-2.6,0.6-5.1,0.9-7.7c0.1-1.1,0.3-2.2,0.5-3.3c0.2-1.6,0.4-3.2,0.6-4.9
			c0.1-0.6,0.2-1,0.9-1.1s1.5-0.4,2.2-0.5c2.2-0.5,4.4-1,6.6-1.6c1.6-0.5,3.2-1.1,4.8-1.6c0.4-0.2,0.9-0.3,1.4-0.4
			c0.7-0.1,0.9,0.1,0.8,0.8c0,0.5-0.1,1.1-0.3,1.6c-0.9,2.9-1.7,5.7-2.7,8.5c-1.4,4.5-3,9-4.8,13.3
			C87.3,131.8,87.1,132.1,86.9,132.6z"/>
		<path class="st0" d="M123.5,29.7c-0.2-0.6-0.5-1.3-0.7-2c-0.7-2-1.7-3.9-3.1-5.6c-0.4-0.4-0.5-1.1-0.2-1.7c1.1-3.2,2.4-6.3,4-9.3
			c1.6-3,3.1-6,4.7-9c1.2-2.3,0.9-2,3.5-2.1c1.4,0,2.7,0.4,3.9,1.1c0.7,0.3,1.2,1.1,1.3,1.9c0.1,1.4,0.3,2.9,0.4,4.3
			c0.2,0.9,0.3,1.9,0.2,2.8c-0.4,0.9-0.9,1.6-1.5,2.3l-9.9,15.1C125.3,28.4,124.8,29.5,123.5,29.7z"/>
		<path class="st0" d="M96.3,40.7c0.1,0.2,0.2,0.3,0.2,0.4c1.6,2.8,3.2,5.7,4.8,8.5c0.8,1.4,1.7,2.7,2.4,4.2c0.2,0.5,0.2,1.1,0,1.6
			c-1.6,3.5-2.9,7.2-4.3,10.8c-1.6,4.4-3.2,8.7-4.8,13.1c-0.6,1.6-1,3.3-1.6,4.9c-0.4,1.3-1,2.5-1.5,3.9c-0.8-0.9-1.5-1.8-2.1-2.6
			c-0.1-0.3-0.2-0.6-0.2-0.9c0.1-3,0.4-5.9,1-8.9c0.9-4.9,1.7-9.8,2.6-14.8c0.8-4.6,1.5-9.2,2.3-13.9c0.3-1.8,0.5-3.6,0.8-5.4
			C96.1,41.4,96.2,41.1,96.3,40.7z"/>
		<path class="st0" d="M145.9,64.8c2.3,0.1,4.6,0.5,6.8,1.1c5.3,1.6,10.1,4.2,15,6.8c1.1,0.6,2.2,1.3,3.2,2.1
			c0.9,0.5,1.1,1.6,0.6,2.5c-0.2,0.3-0.5,0.6-0.9,0.8c-0.5,0.3-1,0.4-1.6,0.5c-3.7,0.5-7.3,1.2-10.9,2.2c-1.2,0.3-2.4,0.7-3.7,1.1
			c-0.4,0.2-0.9,0-1.2-0.3c-1.2-1.3-2.3-2.6-3.3-4c-2.3-3.2-4.2-6.7-5.9-10.3c-0.1-0.2-0.2-0.4-0.3-0.6c-0.1-1.2,0.1-1.5,1.3-1.6
			L145.9,64.8z"/>
		<path class="st0" d="M95.7,82.9c0.7-1.9,1.4-3.9,2.1-5.8c0.6-1.6,1.2-3.3,1.8-4.9c1.1-2.9,2.1-5.8,3.2-8.8c1-2.6,1.9-5.3,2.9-7.9
			c0.1-0.3,0.3-0.6,0.7-0.7c2.9-0.8,5.7-1.7,8.6-2.5c2.3-0.6,4.7-1,7-1.5c0.8-0.2,1,0.1,0.8,0.9s-0.5,1.3-0.8,2
			c-1,2.1-2,4.1-2.9,6.2c-0.2,0.7-0.7,1.2-1.3,1.6c-0.6,0.4-1.1,0.8-1.6,1.3c-2.5,2.1-5,4.3-7.6,6.3c-2.7,2.2-5.2,4.5-7.6,7
			c-1,1.1-2,2.1-2.9,3.3c-0.7,0.8-1.3,1.8-1.6,2.9c-0.1,0.3-0.2,0.5-0.4,0.8L95.7,82.9z"/>
		<path class="st0" d="M127.3,91.9c-0.3,1.2-0.7,2.4-1.1,3.5c-0.9,2.1-1.9,4.2-3,6.2c-2,3.5-4.4,6.7-7.2,9.6
			c-0.6,0.6-1.2,1.2-1.8,1.9c-1.4,1.4-2.7,2.8-4.1,4.2c-0.6,0.6-1.1,1.3-1.7,2c-0.9,1-1.7,1.9-2.6,2.9c-0.2,0.3-0.4,0.6-0.7,0.8
			c-0.1,0.1-0.3,0.1-0.4,0.1c-0.1-0.1-0.2-0.2-0.2-0.4c0-0.2,0.1-0.5,0.2-0.7c1.4-4.2,2.9-8.4,4.3-12.7c0.7-2.2,1.4-4.5,2.1-6.7
			c0.8-2.4,1.7-4.8,2.4-7.2c0.1-0.4,0.5-0.7,0.9-0.7c1.2-0.4,2.5-0.9,3.7-1.3l7.9-2.6c0.1,0,0.2-0.1,0.4-0.1
			C127,90.6,127.3,90.9,127.3,91.9z"/>
		<path class="st0" d="M52.7,187.9c-0.4,0.2-0.9,0.4-1.2,0.7c-0.3,0.3-1,0.2-1.5,0.2c-2.6-0.3-5.1-1-7.5-2.1
			c-2.8-1.3-5.4-2.9-7.8-4.9c-2.2-1.8-4.3-3.7-6.2-5.8c-0.7-0.8-1.4-1.6-2-2.4c-0.5-0.8-0.4-1.1,0.6-1.2c3.8-0.3,7.6-0.8,11.3-1.5
			c1.2-0.2,2.3-0.5,3.6-0.9c0.3,0.3,0.6,0.5,0.9,0.9c3.6,5.4,7.2,10.8,9.7,16.8C52.7,187.7,52.7,187.8,52.7,187.9z"/>
		<path class="st0" d="M73.8,80.5c-0.7,0.6-1.6,0.9-2.5,1.1c-1.7,0.4-3.3,0.9-4.9,1.3c-0.6,0.1-1.1,0.4-1.5,0.8
			c-0.2,0.3-0.7,0.3-1,0.1c0,0-0.1-0.1-0.1-0.1c-0.4-0.4-0.8-0.8-1.1-1.3c-1.5-1.9-2.9-3.8-4.3-5.8s-3-3.6-4.6-5.3
			c-1.9-2.1-3.7-4.3-5.6-6.5c-0.6-0.7-0.5-0.7,0.2-1.4c0.6-0.6,1.5-0.8,2.3-0.7c1.8,0.1,3.5,0.1,5.3,0.2c0.8,0,1.5,0.1,2.3,0.1
			c0.2,0,0.4,0.2,0.6,0.3c4.7,5.3,9.5,10.7,14.2,16C73.2,79.7,73.5,80.1,73.8,80.5z"/>
		<path class="st0" d="M10.8,73.4c3.8-5.7,8.5-10.7,14.1-14.7c0,0,0.1,0,0.1,0.1c0.6,1.9,1.3,3.9,1.8,5.8c0.7,2.6,1.4,5.2,2.1,7.9
			c0.1,0.3,0.2,0.6,0.3,1c0.6,2.2,0.7,4.6,0.2,6.8c-0.5,0.4-1.2,0.4-1.8,0.1c-3.7-1.6-7.6-2.7-11.3-4.4l-4.8-2.3
			C11.1,73.6,10.9,73.5,10.8,73.4z"/>
		<path class="st0" d="M28.5,90.3c2.3,0,4.6,0.8,6.5,2.2c1.5,1,3,2,4.5,3.1c2.3,1.7,4.2,3.8,5.7,6.2c0.5,0.6,0.4,1.5-0.2,2
			c-0.2,0.2-0.5,0.3-0.7,0.3c-0.6,0.2-1.2,0.2-1.8,0.2c-2.1-0.1-4.2-0.1-6.2,0.1c-1.2,0-2.5-0.1-3.7-0.2c-1.3-0.2-2.6-0.7-3.7-1.5
			c-1.1-0.6-2.2-1.3-3.1-2.2c-2-2.2-4.1-4.3-5.1-7.2c-0.3-0.9-0.2-1.3,0.7-1.5c1.3-0.4,2.7-0.7,4.1-1C26.4,90.4,27.5,90.4,28.5,90.3
			z"/>
		<path class="st0" d="M172.9,158.5c-1.4-0.2-2.7-0.4-3.9-0.7c-1-0.2-2-0.4-2.9-0.6c-1-0.2-1.9-0.5-2.9-0.8c-0.1,0-0.3-0.1-0.4-0.2
			c-0.8-1-1.1-2.3-0.7-3.5c0.5-0.9,1-1.7,1.5-2.5c0.6-0.9,1.3-1.8,2-2.7c1.1-1.6,2.4-3,3.9-4.3c0.5-0.4,1.1-0.9,1.5-1.5
			c1-1.1,2.1-2.1,3.3-2.9c0.7-0.4,1.5-0.7,2.3-1c0.7-0.3,1.6-0.1,2.1,0.6c0.2,0.2,0.4,0.5,0.4,0.9c0.3,1.9,0,3.8-0.7,5.6
			c-0.2,0.5-0.3,1-0.4,1.6c-0.1,0.5-0.3,0.9-0.4,1.3c-1,2.2-2,4.5-2.8,6.8C174.1,155.8,173.5,157.1,172.9,158.5z"/>
		<path class="st0" d="M14,131.4c-2.7-0.1-5.4-0.9-7.7-2.3c-1.8-1-3.3-2.4-4.5-4.1c-0.9-1.5-1.5-3.1-1.8-4.8c-0.2-1,0.1-1.4,1.1-1.7
			c1.8-0.5,3.7-1.1,5.5-1.5s4-0.8,6-1.2c1.5-0.3,1.8-0.1,2.3,1.4c0.3,0.8,0.5,1.5,0.6,2.3c0.6,3.3,1.5,6.6,2.5,9.8
			c0.4,1.1,0.1,1.6-1.1,1.8C16,131.2,15,131.3,14,131.4z"/>
		<path class="st0" d="M168.5,80.8c-0.6,0.9-1.3,1.7-2.2,2.3c-3.7,2.6-7.4,5.3-11.2,7.8c-2.8,1.8-5.5,3.9-8.1,6.2
			c-0.7,0.7-1.5,1.4-2.3,2c-0.3,0.2-0.6,0.3-1,0.4c-0.8,0.1-1.6,0.2-2.4,0.3c-2.4,0.1-4.7,1-7.1,1.4l-0.9,0.2
			c-0.2-0.3-0.2-0.8,0.1-1c2-1.9,4-3.9,6-5.8c3.1-2.8,6.5-5.3,10.1-7.5c1.5-0.9,3-1.7,4.5-2.5c2.2-1.2,4.6-2,7-2.6
			c1.7-0.4,3.4-0.9,5.1-1.2c0.5-0.1,1.1-0.1,1.6-0.1C167.9,80.6,168.2,80.7,168.5,80.8z"/>
		<path class="st0" d="M100,153.7c1,0.4,2,0.7,2.9,1.1c3.6,1.6,7.2,2.9,10.9,4c0.2,0,0.4,0.1,0.6,0.2c2.3,0.9,4.6,1.7,6.9,2.3
			c3.5,1.1,7.1,1.9,10.8,2.3c-0.2,0.1-0.3,0.2-0.5,0.3c-2.7,1.1-5.4,2.2-8.1,3.4c-0.7,0.3-1.4,0.7-2.1,1.2c-0.5,0.4-1.3,0.4-1.8-0.1
			c-2-1.7-4.2-3-6.7-3.8c-1.4-0.5-3-0.8-4.5-0.8c-1.4,0.1-2.9,0-4.3,0h-3.1c0-0.1-0.1-0.2-0.1-0.2c0.9-1.6,0.6-3.2,0.3-4.9
			S100.5,155.5,100,153.7z"/>
		<path class="st0" d="M161,170c0,1.1,0,1-0.8,1.1c-1.9,0.1-3.9,0.4-5.8,0.6c-3.8,0.4-7.5,1.1-11.2,2c-0.8,0.2-1.7,0.5-2.5,0.8
			c-0.6,0.2-1.3,0.2-1.9-0.2c-1.8-0.9-3.7-1.3-5.7-1.4c-2.5-0.1-5,0.1-7.4,0.7c-0.5,0.2-1,0.1-1.4-0.3c-0.7-0.8-0.7-1.2,0.2-1.7
			c2.8-1.7,5.9-3,9-3.9c2.8-0.8,5.7-1.1,8.6-1c3.3,0.1,6.5,0.5,9.8,1.2C155,168.6,158,169.3,161,170z"/>
		<path class="st0" d="M107.6,14.7c-0.1-2.4-0.2-4.8-0.3-7.2c0-1.2,0.6-2.4,1.7-3c1.9-1.1,3.9-2.1,5.9-3c0.7-0.2,1.4-0.2,2.1-0.1
			c0.4,0,0.7,0.3,0.8,0.7c0,0,0,0.1,0,0.1c0,0.5,0,0.9-0.1,1.4c-0.8,4.4-1.6,8.8-2.4,13.3c-0.2,1.2-0.4,2.3-0.5,3.5
			c0,0.5-0.4,0.9-0.8,1.1c-1.5,0.7-3,1.5-4.5,2.3s-1.8,0.8-1.9-0.9c-0.1-1-0.1-2.1-0.1-3.1C107.6,18,107.6,16.4,107.6,14.7
			L107.6,14.7z"/>
		<path class="st0" d="M100.9,202.7c-0.4-2.2-1.8-4.1-1.8-6.4c0.9-0.5,2-0.8,3.1-0.9c3.6-0.4,7.2-0.6,10.7-0.6
			c2.5,0.1,5.1,0.4,7.6,0.6c0.4,0,0.9,0.1,1.3,0.3c0.8,0.2,1.3,1.1,1,1.9c0,0.1-0.1,0.2-0.1,0.2c-0.2,0.7-0.7,1.4-1.4,1.8
			c-1.6,1-3.3,1.7-5.2,2.2c-3,0.9-6.2,1.2-9.3,0.9c-1.8-0.1-3.6,0-5.3,0C101.4,202.7,101.2,202.7,100.9,202.7z"/>
		<path class="st0" d="M64.8,31.7c-0.8,0.9-1.6,1.7-2.3,2.6c-0.7,0.8-1.3,1.6-1.9,2.5c-1.7,3.3-3.4,6.6-3.8,10.4
			c-0.1,0.6-0.2,1.2-0.1,1.9c0.1,0.5-0.2,0.7-0.7,0.7c-0.3,0-0.6-0.2-0.9-0.3c-0.5-0.4-1-0.9-1.4-1.4c-0.9-1.2-1.7-2.5-2.5-3.8
			s-1.3-2.6-2-3.9c-0.5-1.1-0.9-2.3-1-3.5c0-0.3,0.1-0.6,0.3-0.8c0.8-0.7,1.6-1.4,2.4-2.1c0.3-0.2,0.6-0.3,0.9-0.4
			c2.5-0.5,4.9-0.9,7.4-1.3c1.8-0.3,3.7-0.5,5.6-0.7L64.8,31.7z"/>
		<path class="st0" d="M161.4,101.3c0.8,0,1.6,0,2.4,0c0.5,0.1,1,0.4,1.3,0.9c0.6,0.8,1.2,1.5,1.8,2.3c1.6,2,3.2,3.9,4.8,5.9
			c0.3,0.4,0.5,0.8,0.7,1.2c0.2,0.6,0.1,1.2-0.2,1.7c-0.2,0.1-0.4,0.2-0.6,0.1c-2.5-0.3-5-0.6-7.5-0.8c-0.9-0.1-1.7,0-2.6,0.1
			c-0.9,0.1-1.8-0.4-2-1.3c-1.2-2.8-2.6-5.4-4.3-7.9l-0.1-0.2c-0.4-0.7-0.2-1,0.6-1.2L161.4,101.3L161.4,101.3z"/>
		<path class="st0" d="M99.2,25.6c-3-0.6-6-1.2-8.9-1.9c-1.5-0.3-2.9-0.8-4.3-1.3c-1.2-0.4-2.3-0.8-3.4-1.2c-1-0.4-1.1-0.8-0.5-1.7
			c0.3-0.5,0.7-0.9,1.2-1.2c0.8-0.6,1.7-1.2,2.6-1.7c0.5-0.3,0.9-0.5,1.4-0.7c1.5-0.6,3-1.2,4.5-1.7c0.6-0.2,1.2-0.4,1.8-0.6
			c1-0.4,2.1,0.2,2.4,1.1c0,0,0,0.1,0,0.1c0.9,2,1.8,4,2.7,6c0.5,1.4,0.7,2.9,0.7,4.4C99.4,25.3,99.3,25.4,99.2,25.6z"/>
		<path class="st0" d="M73.8,197.2c0.2,0,0.3,0,0.5,0c3,0,6.1-0.2,9.1-0.7c2.2-0.2,4.3-0.6,6.5-0.8c0.9,0,1.7,0.1,2.6,0.3
			c0.6,0.2,1.1,0.6,1.3,1.2c0.7,1.4,1.1,2.9,1.4,4.4c0.2,0.7,0.4,1.5,0.8,2.2c0.1,0.2,0.2,0.4,0.3,0.7c-1.4,0-2.9-0.1-4.2-0.4
			c-2.3-0.6-4.5-1.2-6.8-1.8c-1.6-0.4-3.2-0.6-4.7-0.8c-0.7-0.1-1.3,0-2,0c-0.3,0-0.6-0.1-0.8-0.2C76.3,200,75.1,198.6,73.8,197.2z"
			/>
		<path class="st0" d="M4.9,89.3c2.7,2.9,5.1,5.7,8.3,7.9c-0.2,0.8-0.6,1.5-1.2,2c-1.4,1.2-2.8,2.5-4.3,3.6
			c-1.7,1.3-3.6,2.5-5.3,3.7c-0.2,0.2-0.5,0.3-0.7,0.3c-0.3,0.1-0.6-0.1-0.7-0.4c0,0,0-0.1,0-0.1c0-0.1,0-0.3,0-0.4
			c0.1-3.3,0.6-6.7,1.4-9.9c0.1-0.4,0.3-0.8,0.4-1.1C3,93.9,3.3,93,3.5,92.1C3.7,91,4.2,90.1,4.9,89.3z"/>
		<path class="st0" d="M17.2,110.3l-2.9,0.5c-0.8,0.1-1.6,0.4-2.4,0.8c-0.9,0.5-1.9,0.5-2.8,0.1c-1.4-0.6-2.7-1.2-4-1.9
			c-0.2-0.1-0.3-0.2-0.5-0.4c-0.8-0.9-0.7-1.6,0.4-2.3c2-1.1,4.1-2.3,6.1-3.5c1.5-1,2.7-2.2,3.8-3.6c0.1-0.2,0.3-0.4,0.4-0.6
			c3,1.1,5.3,3.2,8,5c-0.5,0.1-0.9,0.2-1.2,0.2c-1.1,0.3-2.1,0.5-3.2,0.8c-1.4,0.3-2.2,1.7-1.9,3.1C17,109.2,17.1,109.7,17.2,110.3z
			"/>
		<path class="st0" d="M74.1,204.4c-1.2,0.3-2.4,0.3-3.6,0.1c-1-0.2-1.9-0.4-2.8-0.8c-2.6-1.2-5.1-2.4-7.7-3.7
			c-1.7-0.8-3.2-2-4.4-3.4c-0.6-0.7-1.4-1.4-2.2-1.9c-1.2-0.8-2.4-1.4-3.6-2.3l1.4,0.2c1,0.1,2.1,0.2,3.1,0.2c0.6,0,1.3-0.1,1.9-0.4
			c0.6-0.2,1.1-0.5,1.7-0.8c1.5,1,3,2,4.5,3.1c2.8,2,5.5,4,8.2,6c1.1,0.9,2.1,1.8,3,2.8C73.8,203.9,74,204.2,74.1,204.4z"/>
		<path class="st0" d="M148.8,28.9c-0.1,0-0.3-0.1-0.4-0.1c-3.7-1.9-7.2-4.2-10.3-7l-0.6-0.6c-0.4-0.4-0.5-0.9-0.2-1.4
			c1.2-2.5,2.8-4.7,4.7-6.7c0.4-0.3,0.7-0.8,1.1-1.1s0.8-0.3,1,0.2c0.6,1.3,1.1,2.7,1.6,4c0.8,2.3,1.5,4.6,2.3,6.9
			c0.3,0.9,0.6,1.8,0.8,2.7C148.9,26.7,148.9,27.8,148.8,28.9z"/>
		<path class="st0" d="M161.9,172.5c-0.1,0.3-0.3,0.6-0.4,0.9c-0.8,1-1.6,2-2.5,2.9c-1.9,1.9-3.9,3.7-5.8,5.6
			c-0.5,0.7-1.5,0.8-2.2,0.3c0,0-0.1,0-0.1-0.1c-1.4-0.9-2.8-1.9-4.1-2.8c-1-0.7-2.1-1.4-3.1-2c-0.2-0.1-0.3-0.2-0.5-0.4
			c-0.5-0.4-0.5-0.9,0.1-1.2c0.4-0.3,0.9-0.5,1.4-0.6c2.4-0.5,4.8-1.1,7.3-1.4c3-0.5,6-0.8,9.1-1.1
			C161.2,172.4,161.4,172.5,161.9,172.5z"/>
		<path class="st0" d="M132.3,187.1c-0.5-1.1-0.9-2.2-1.4-3.2c-0.8-1.5-1.7-2.9-2.6-4.3c-0.1-0.2-0.3-0.4-0.4-0.6
			c-0.3-0.6-0.2-1.1,0.5-1.3c0.7-0.2,1.4-0.3,2.2-0.2c2,0.2,3.9,0.8,5.7,1.5c2.9,1.3,5.2,3.6,6.7,6.4c0.6,1.1,0.1,1.9-1.1,1.9
			c-0.7,0-1.4-0.1-2.1-0.1l-6.2-0.2H132.3z"/>
		<path class="st0" d="M80.6,170l-0.6-0.4c-1.3-0.9-2.5-1.8-3.8-2.6c-1-0.6-1.1-0.8-0.8-1.9c0.1-0.4,0.2-0.9,0.3-1.3
			c0.2-0.8,0.3-0.9,1.2-0.9l3.2,0.1l14.2,0.5c0.2,0,0.4,0,0.6,0c0.2,0.1,0.5,0.2,0.6,0.4c0,0.3-0.1,0.5-0.3,0.7
			c-0.2,0.1-0.4,0.2-0.6,0.2c-1.6,0.3-3.1,0.7-4.7,1c-2.9,0.4-5.7,1.5-8,3.3C81.5,169.4,81.1,169.6,80.6,170z"/>
		<path class="st0" d="M108,190.4c-0.3,0.7-0.9,0.7-1.4,0.8c-1.2,0.1-2.3,0.1-3.5,0.2c-2.3,0.1-4.7,0.5-6.9,1.2
			c-0.3,0.2-0.7,0.1-1-0.2c-1-1.1-2.5-1.8-4.1-1.8c-0.3-1.9-0.6-3.7-0.9-5.6c2.4,1.5,5.1,1.6,7.7,1.8c1.3,0.1,2.6,0.3,3.8,0.7
			c1.6,0.4,3.2,1.1,4.6,1.9C107,189.7,107.5,190,108,190.4z"/>
		<path class="st0" d="M33.6,127.7c-0.2,0.1-0.5,0.2-0.7,0.3c-1.8,0.2-3.6,0.6-5.4,1.1c-1,0.3-1.9,0.5-2.9,0.6
			c-0.6,0.2-1.2-0.2-1.4-0.8c-0.1-0.3-0.3-0.6-0.4-0.9c-0.6-2-1.1-3.9-1.7-5.9c-0.3-1.1-0.6-2.1-0.8-3.2c-0.1-0.4-0.2-0.8,0.2-1
			c0.3-0.2,0.7-0.1,1,0.2c0.9,0.8,1.8,1.7,2.8,2.5c2.5,2.3,5.2,4.3,8.1,6c0.4,0.2,0.8,0.5,1.2,0.8L33.6,127.7z"/>
		<path class="st0" d="M170.7,99.9c0.6,0.1,1.2,0.1,1.8,0.2c1.4,0,2.5,1.1,2.6,2.4c0.7,2.9,1.2,5.9,1.8,8.8c0.2,0.6,0,1.3-0.4,1.8
			c-0.3,0.4-0.8,0.6-1.2,0.3c-0.1-0.1-0.2-0.2-0.3-0.3c-0.3-0.4-0.5-0.9-0.7-1.3c-0.9-1.9-2.1-3.8-3.5-5.4c-1.2-1.4-2.4-2.8-3.5-4.2
			c-0.5-0.3-0.6-0.9-0.3-1.4c0.2-0.3,0.5-0.4,0.8-0.4C168.8,100.2,169.7,100.1,170.7,99.9L170.7,99.9z"/>
		<path class="st0" d="M168,56.9c-0.2-0.1-0.3-0.2-0.5-0.3c-2.1-1.9-4.5-3.7-6.9-5.2c-1.3-1-2.4-2.1-3.4-3.4
			c-0.1-0.2-0.3-0.4-0.3-0.6c-0.3-0.8,0-1.2,0.8-1.4c0.7-0.1,1.5-0.2,2.2-0.3c0.3,0,0.5,0.1,0.8,0.2c1.6,0.9,3.1,1.9,4.5,3
			c1.6,1.4,2.9,3.2,3.8,5.1c0.3,0.5,0.2,1.1-0.1,1.5C168.6,56,168.3,56.5,168,56.9z"/>
		<path class="st0" d="M55.6,60.3c-1.9,0.3-3.9,0.4-5.9,0.4c-1.5,0-3-0.2-4.5-0.5c-1.2-0.2-1.5-1.2-2-2.1c-0.1-0.2,0-0.6,0.2-0.7
			c0.4-0.5,0.9-0.9,1.6-1.2c1.4-0.3,2.8-0.7,4.2-1.1c0.2,0,0.3,0,0.5,0c0.9,0.3,2,0.3,2.7,1.1C53.6,57.5,54.7,58.9,55.6,60.3z"/>
		<path class="st0" d="M128.2,196.2c-0.3-0.7-0.6-1.3-0.9-1.9c-0.2-0.3-0.1-0.8,0.2-1c0.3-0.3,0.7-0.5,1.1-0.7
			c2.4-1.2,5.1-1.8,7.8-1.8c0.4,0,0.9,0.1,1.3,0.2c0.5,0.1,0.6,0.5,0.2,0.9c-0.1,0.2-0.3,0.3-0.5,0.5c-1,0.7-2,1.4-3.1,2
			c-0.6,0.3-1.3,0.5-1.9,0.7l-2.8,1C129.1,196.3,128.7,196.3,128.2,196.2z"/>
		<path class="st0" d="M66.5,155.6l6.5,6.8c-0.1,0.4-0.2,0.8-0.3,1.3c-0.4,1.1-0.9,1.3-2,1.1c-0.9-0.1-1.9-0.2-2.8-0.3l-0.8-0.1
			C67.9,161.3,67.3,158.5,66.5,155.6z"/>
	</g>
</g>
</svg>
