<svg width="291" height="161" viewBox="0 0 291 161" fill="none" xmlns="http://www.w3.org/2000/svg">
<path d="M134.065 93.3334L67.283 160L0.500977 93.3334M67.7843 0L67.7843 160" stroke="black"/>
<path d="M261.836 139.804C261.383 139.232 260.859 138.728 260.287 138.338L259.64 139.094C260.133 139.619 260.624 140.088 261.113 140.502C261.918 141.549 262.449 142.839 262.504 143.956C262.544 144.78 262.325 145.44 261.851 145.865C261.375 146.292 260.541 146.575 259.152 146.419L258.481 146.344L258.605 147.008C258.783 147.964 258.489 148.844 257.845 149.642C257.193 150.449 256.195 151.154 255.029 151.709C253.868 152.262 252.569 152.652 251.347 152.845C250.228 153.022 249.205 153.029 248.425 152.868L248.159 152.29L247.625 151.13L247.23 152.344C246.076 155.883 242.974 157.272 239.19 157.791C237.303 158.05 235.286 158.086 233.324 158.076C232.824 158.073 232.327 158.067 231.836 158.062C230.413 158.046 229.046 158.03 227.84 158.091L227.161 158.125L227.395 158.763L227.649 159.452C224.97 159.661 222.368 159.153 219.711 158.542C219.362 158.462 219.013 158.38 218.662 158.297C216.151 157.708 213.575 157.103 210.92 157.064L210.026 157.051L210.483 157.82L211.119 158.89C205.721 160.393 200.892 158.477 196.263 155.422C194.019 153.941 191.846 152.208 189.689 150.489C189.538 150.368 189.386 150.248 189.235 150.128C186.987 148.337 184.751 146.58 182.507 145.205L182.527 145.154C182.078 144.846 181.514 144.481 180.876 144.069C178.808 142.731 175.966 140.893 173.778 138.893C172.343 137.582 171.261 136.262 170.845 135.033C170.641 134.43 170.603 133.866 170.746 133.337C170.89 132.808 171.227 132.268 171.85 131.734L172.604 131.087L171.635 130.867C167.105 129.837 163.076 126.717 160.187 122.662C157.369 118.707 155.667 113.905 155.634 109.388C156.096 109.212 156.559 109.032 157.023 108.851C159.679 107.817 162.371 106.769 165.131 106.4H165.141H165.197L165.251 106.388C166.018 106.216 166.783 106.282 167.483 106.551L168.322 106.872L168.153 105.989C168.061 105.507 168.177 104.934 168.431 104.381C168.685 103.831 169.048 103.363 169.366 103.099L169.928 102.633L169.29 102.278C168.989 102.109 168.716 101.866 168.495 101.571L168.088 101.031L167.69 101.578C166.493 103.226 164.93 103.987 163.229 104.127L163.228 104.127C161.133 104.304 158.795 103.547 156.681 102.244C154.57 100.943 152.738 99.1314 151.648 97.282C150.549 95.4174 150.265 93.6286 151.005 92.2689C151.746 90.9075 153.632 89.7572 157.403 89.4541L159.297 89.3019L157.574 88.5022C157.375 88.4101 157.174 88.3205 156.974 88.2309C156.36 87.9572 155.746 87.6831 155.191 87.3349C154.466 86.8801 153.935 86.3506 153.72 85.6457L153.64 85.3828L153.375 85.3096C152.066 84.9481 151.341 83.9551 151.053 82.4879C150.761 80.9982 150.942 79.084 151.434 77.0736C151.923 75.0725 152.708 73.0214 153.582 71.2784C154.328 69.7903 155.122 68.5604 155.828 67.7776C157.22 69.3907 159.767 71.7126 162.133 73.756C164.725 75.9946 167.169 77.9566 167.747 78.3528L168.384 77.5873C166.601 75.7991 166.039 74.3273 166.133 73.2035C166.226 72.0933 166.975 71.1563 168.211 70.4647C169.445 69.7738 171.103 69.3693 172.838 69.3206C174.57 69.2719 176.338 69.5795 177.789 70.2706L178.356 69.4638C178.03 69.1412 177.662 68.8237 177.295 68.5124C177.244 68.4689 177.193 68.4257 177.142 68.3824C176.823 68.1118 176.508 67.8442 176.207 67.5679C175.503 66.9205 174.947 66.284 174.699 65.5988L174.603 65.3347L174.327 65.2792C168.843 64.1759 162.676 61.7855 158.015 58.4989C161.43 53.1275 165.83 48.4729 171.111 44.9091L171.161 44.8758L171.201 44.8318C171.867 44.1024 172.552 43.7291 173.245 43.6013C173.943 43.4725 174.698 43.5841 175.514 43.912C177.165 44.5755 178.952 46.0776 180.783 47.9342C182.041 49.2106 183.286 50.6192 184.5 51.9918C185.048 52.6108 185.589 53.2224 186.121 53.8114C187.808 55.6768 189.436 57.3412 190.861 58.1386L191.526 57.432C191.128 56.8133 190.578 56.2153 190.014 55.6393C189.836 55.4574 189.657 55.2783 189.479 55.1003C189.081 54.7013 188.688 54.3077 188.32 53.8995C187.245 52.7069 186.584 51.5976 186.824 50.4033L186.928 49.8859L186.406 49.8099C184.822 49.5795 184.275 48.6457 183.682 47.633C183.599 47.49 183.514 47.3454 183.425 47.201C183.433 45.4365 184.244 44.2668 185.434 43.5774C186.682 42.8544 188.387 42.6421 190.088 42.9352C190.652 43.0345 191.445 43.4023 192.356 43.9484C193.254 44.4859 194.216 45.1644 195.104 45.8346C195.991 46.5038 196.797 47.1594 197.381 47.6481C197.673 47.8923 197.91 48.0945 198.073 48.2353C198.155 48.3057 198.218 48.3608 198.26 48.3981L198.309 48.4404L198.321 48.4511L198.324 48.4536L198.324 48.4542L198.324 48.4543L199.073 47.8036C198.779 47.3613 198.036 46.4354 197.085 45.2782C196.478 44.5394 195.776 43.694 195.033 42.8005C194.603 42.2826 194.159 41.7486 193.713 41.2098C191.28 38.2727 188.787 35.2172 187.855 33.7557C187.351 32.6837 187.22 31.7694 187.339 30.9856C187.458 30.1957 187.838 29.4922 188.43 28.8591C189.629 27.5747 191.658 26.6269 193.908 25.9431C196.141 25.2642 198.518 24.8666 200.343 24.6391C201.255 24.5256 202.025 24.4548 202.567 24.4124C202.838 24.3913 203.051 24.3772 203.197 24.3685C203.203 24.3681 203.208 24.3678 203.214 24.3675C206.33 27.2091 208.069 31.1932 209.484 35.51C209.916 36.8273 210.319 38.181 210.722 39.5389C211.649 42.6549 212.582 45.7928 213.89 48.5634L214.842 48.3593C214.922 44.0866 214.181 39.5573 213.455 35.117C213.332 34.3642 213.21 33.6138 213.092 32.8678C212.275 27.7094 211.671 22.7524 212.518 18.3822C214.237 14.55 217.221 12.309 220.167 11.6866C223.12 11.0627 226.037 12.0547 227.724 14.7182L228.124 14.4649L227.724 14.7182C227.976 15.1162 228.242 15.8619 228.495 16.8288C228.743 17.7783 228.966 18.8865 229.152 19.9685C229.337 21.0495 229.483 22.0972 229.578 22.9231C229.626 23.3363 229.661 23.6913 229.682 23.9657C229.704 24.2539 229.708 24.4195 229.703 24.4758L229.623 25.4691L230.467 24.9392C230.807 24.7256 231.133 24.5126 231.448 24.3062L231.49 24.2788C231.79 24.0819 232.08 23.8917 232.37 23.7091C232.524 23.6133 232.585 23.4649 232.6 23.4277L232.601 23.4255C232.627 23.3626 232.645 23.2966 232.658 23.2398C232.685 23.1233 232.706 22.977 232.725 22.814C232.762 22.4843 232.791 22.0318 232.813 21.4928C232.856 20.4121 232.869 18.9512 232.839 17.3587C232.782 14.2118 232.56 10.4963 232.077 8.17351C232.14 6.22782 233.829 4.29701 236.109 3.08285C238.388 1.86928 240.988 1.51647 242.665 2.43086C243.056 2.79222 243.274 3.42208 243.315 4.33162C243.357 5.25456 243.211 6.36017 242.988 7.51729C242.827 8.35467 242.63 9.19557 242.442 9.99791C242.37 10.304 242.299 10.6044 242.233 10.8969C241.998 11.9291 241.801 12.8955 241.807 13.5803L242.767 13.7717C243.554 11.9225 244.471 10.1118 245.415 8.30371C245.627 7.89796 245.841 7.49198 246.054 7.08572C246.783 5.69984 247.513 4.31056 248.19 2.91502C249.378 1.27658 250.679 0.595247 251.902 0.509476C253.146 0.422168 254.41 0.944839 255.51 1.90459C257.728 3.83964 259.099 7.39166 258.174 10.4844L257.665 12.1879L258.987 10.9996C259.714 10.3466 260.337 10.0415 260.862 9.95727C261.372 9.87525 261.839 9.99454 262.286 10.2923C263.221 10.9154 264.039 12.2989 264.718 14.1055C266.061 17.6787 266.708 22.4623 266.929 24.4943L266.961 24.7831L267.045 24.8194C264.805 30.8214 260.409 36.5442 256.327 41.6331L256.965 42.3798C261.192 39.9579 265.561 37.791 270.247 36.5656L270.336 36.5423L270.411 36.4887C271.631 35.6168 273.197 35.4926 274.839 35.9385C276.482 36.3847 278.15 37.3913 279.492 38.6913C280.837 39.9936 281.815 41.5525 282.136 43.0751C282.451 44.5731 282.136 46.0451 280.871 47.2793L280.599 47.5441L280.733 47.7903L280.67 47.8068H280.661L280.601 47.8217C277.254 48.6571 274.479 49.4853 271.191 50.8812L270.194 51.3042L271.162 51.7886C271.921 52.1682 273 52.6058 274.201 53.0926C274.707 53.2976 275.234 53.5114 275.768 53.7332C277.594 54.4916 279.531 55.3569 281.113 56.3373C282.718 57.3318 283.85 58.3809 284.218 59.4631C284.394 59.9834 284.399 60.5254 284.174 61.1106C283.945 61.7072 283.466 62.3734 282.632 63.1038L282.578 63.1507L282.54 63.2107C280.403 66.5547 277.154 68.8562 273.676 71.0913C273.229 71.3785 272.778 71.6646 272.325 71.9519C269.283 73.8823 266.164 75.8615 263.696 78.5064L263.043 79.2072L263.992 79.3425C264.125 79.3615 264.317 79.3585 264.517 79.3492C264.732 79.3392 265.003 79.3192 265.318 79.291C265.948 79.2347 266.774 79.1445 267.724 79.0317C269.624 78.8059 272.035 78.4878 274.403 78.1644C276.771 77.8409 279.099 77.5117 280.835 77.2634C281.703 77.1392 282.423 77.0353 282.926 76.9624L283.509 76.8776L283.661 76.8554C284.61 76.9355 285.548 77.6804 286.358 78.9514C287.171 80.2248 287.784 81.922 288.093 83.6342C288.404 85.3516 288.399 87.0271 288.028 88.2643C287.66 89.4892 286.981 90.1797 285.967 90.2382C285.852 90.2417 285.219 90.2164 284.231 90.1623C283.251 90.1086 281.959 90.0288 280.575 89.9298C277.798 89.7311 274.682 89.4571 272.974 89.1648L272.205 89.0334L272.407 89.7867C273.345 93.2984 274.097 96.7616 273.861 100.351L273.844 100.375C273.784 100.462 273.698 100.586 273.593 100.736C273.385 101.036 273.106 101.437 272.82 101.842C272.535 102.246 272.245 102.653 272.017 102.964C271.902 103.12 271.805 103.249 271.733 103.341C271.696 103.387 271.669 103.42 271.651 103.44C271.616 103.48 271.641 103.444 271.699 103.407L272.005 104.325C272.895 104.263 273.854 104.142 274.827 104.02C275.056 103.991 275.285 103.962 275.514 103.934C276.731 103.784 277.962 103.65 279.156 103.629C281.554 103.585 283.698 103.996 285.213 105.528L285.458 105.776L285.775 105.632C287.443 104.874 289.508 106.012 289.963 107.769L289.961 107.774L289.97 107.911C290.173 110.863 289.342 113.701 288.17 116.525C287.647 117.784 287.061 119.029 286.474 120.278C286.403 120.429 286.331 120.58 286.26 120.732C285.664 122.002 285.075 123.276 284.568 124.553C283.565 124.407 281.795 124.267 279.682 124.136C277.22 123.982 274.252 123.839 271.39 123.716C268.527 123.593 265.769 123.491 263.727 123.419C262.705 123.383 261.863 123.355 261.276 123.335C260.982 123.326 260.752 123.318 260.596 123.313L260.417 123.308L260.372 123.306L260.36 123.306L260.357 123.306L260.356 123.306C260.356 123.306 260.356 123.306 260.355 123.332L260.356 123.306L260.234 123.302L260.123 123.355C259.75 123.536 259.182 123.905 258.732 124.209C258.502 124.366 258.293 124.511 258.142 124.618C258.066 124.671 258.005 124.715 257.962 124.745L257.913 124.78L257.9 124.79L257.897 124.792L257.896 124.793L257.895 124.793L257.895 124.793L258.188 125.199L257.895 124.793L257.889 124.797L257.884 124.802L255.179 126.875L255.576 127.763C259.084 127.104 262.582 127.365 266.086 127.991C268.314 128.389 270.51 128.927 272.712 129.467C273.934 129.766 275.158 130.066 276.389 130.342C276.392 130.346 276.396 130.351 276.399 130.355C276.439 130.408 276.488 130.47 276.541 130.537C276.691 130.728 276.89 130.975 277.088 131.219C277.174 131.325 277.259 131.43 277.341 131.53C277.448 131.662 277.548 131.785 277.632 131.888L277.681 131.947C275.839 135.9 273.332 139.451 270.422 141.071C268.949 141.892 267.384 142.212 265.734 141.856C264.508 141.592 263.203 140.946 261.836 139.804Z" stroke="#101010"/>
</svg>
